<svg xmlns="http://www.w3.org/2000/svg" width="64" height="64" viewBox="0 0 64 64" version="1.1"><path d="" stroke="none" fill="#080404" fill-rule="evenodd"/><path d="M 24 21 L 24 41 34 41 C 40 41, 44 40.600, 44 40 C 44 39.407, 40.333 39, 35 39 L 26 39 26 21 L 26 3 39.500 3 L 53 3 53 17 C 53 25.667, 53.381 31, 54 31 C 54.622 31, 55 25.333, 55 16 L 55 1 39.500 1 L 24 1 24 21 M 28 10 C 28 12.667, 28.333 13, 31 13 C 33.667 13, 34 12.667, 34 10 C 34 7.333, 33.667 7, 31 7 C 28.333 7, 28 7.333, 28 10 M 30 10 C 30 10.550, 30.450 11, 31 11 C 31.550 11, 32 10.550, 32 10 C 32 9.450, 31.550 9, 31 9 C 30.450 9, 30 9.450, 30 10 M 36 10 C 36 10.578, 39.167 11, 43.500 11 C 47.833 11, 51 10.578, 51 10 C 51 9.422, 47.833 9, 43.500 9 C 39.167 9, 36 9.422, 36 10 M 9 19 C 9 19.550, 9.675 20, 10.500 20 C 11.325 20, 12 19.550, 12 19 C 12 18.450, 11.325 18, 10.500 18 C 9.675 18, 9 18.450, 9 19 M 13 19 C 13 19.550, 13.675 20, 14.500 20 C 15.325 20, 16 19.550, 16 19 C 16 18.450, 15.325 18, 14.500 18 C 13.675 18, 13 18.450, 13 19 M 17 19 C 17 19.550, 17.675 20, 18.500 20 C 19.325 20, 20 19.550, 20 19 C 20 18.450, 19.325 18, 18.500 18 C 17.675 18, 17 18.450, 17 19 M 28 21 C 28 23.667, 28.333 24, 31 24 C 33.667 24, 34 23.667, 34 21 C 34 18.333, 33.667 18, 31 18 C 28.333 18, 28 18.333, 28 21 M 30 21 C 30 21.550, 30.450 22, 31 22 C 31.550 22, 32 21.550, 32 21 C 32 20.450, 31.550 20, 31 20 C 30.450 20, 30 20.450, 30 21 M 36 21 C 36 21.578, 39.167 22, 43.500 22 C 47.833 22, 51 21.578, 51 21 C 51 20.422, 47.833 20, 43.500 20 C 39.167 20, 36 20.422, 36 21 M 9 23 C 9 23.550, 9.675 24, 10.500 24 C 11.325 24, 12 23.550, 12 23 C 12 22.450, 11.325 22, 10.500 22 C 9.675 22, 9 22.450, 9 23 M 9 27 C 9 27.550, 9.675 28, 10.500 28 C 11.325 28, 12 27.550, 12 27 C 12 26.450, 11.325 26, 10.500 26 C 9.675 26, 9 26.450, 9 27 M 28 32 C 28 34.667, 28.333 35, 31 35 C 33.667 35, 34 34.667, 34 32 C 34 29.333, 33.667 29, 31 29 C 28.333 29, 28 29.333, 28 32 M 5.180 34.578 L 1 38.156 1 50.578 L 1 63 10.500 63 L 20 63 20 50.578 L 20 38.156 15.820 34.578 C 13.521 32.610, 11.127 31, 10.500 31 C 9.873 31, 7.479 32.610, 5.180 34.578 M 30 32 C 30 32.550, 30.450 33, 31 33 C 31.550 33, 32 32.550, 32 32 C 32 31.450, 31.550 31, 31 31 C 30.450 31, 30 31.450, 30 32 M 36 32 C 36 32.550, 38.250 33, 41 33 C 43.750 33, 46 32.550, 46 32 C 46 31.450, 43.750 31, 41 31 C 38.250 31, 36 31.450, 36 32 M 49.081 33.525 C 47.750 34.255, 46.341 35.449, 45.949 36.177 C 45.363 37.264, 45.307 43.502, 45.860 46.177 C 46.069 47.188, 52.056 50, 54 50 C 56.735 50, 61.859 47.048, 62.327 45.203 C 62.707 43.706, 62.634 39.923, 62.156 36.323 C 61.951 34.779, 56.267 31.973, 53.596 32.098 C 52.443 32.152, 50.411 32.794, 49.081 33.525 M 6.535 37.104 L 3 40.207 3 50.604 L 3 61 10.500 61 L 18 61 18 50.604 L 18 40.207 14.465 37.104 C 12.521 35.397, 10.737 34, 10.500 34 C 10.263 34, 8.479 35.397, 6.535 37.104 M 52.638 35.500 C 52.249 36.515, 52.689 37, 54 37 C 55.311 37, 55.751 36.515, 55.362 35.500 C 55.045 34.675, 54.432 34, 54 34 C 53.568 34, 52.955 34.675, 52.638 35.500 M 48.455 41 C 48.455 43.200, 48.915 45, 49.477 45 C 50.040 45, 50.500 43.200, 50.500 41 C 50.500 38.800, 50.040 37, 49.477 37 C 48.915 37, 48.455 38.800, 48.455 41 M 57.500 41 C 57.500 43.200, 57.960 45, 58.523 45 C 59.085 45, 59.545 43.200, 59.545 41 C 59.545 38.800, 59.085 37, 58.523 37 C 57.960 37, 57.500 38.800, 57.500 41 M 7.410 39.375 C 6.211 42.498, 7.424 44.500, 10.514 44.500 C 13.165 44.500, 13.500 44.164, 13.500 41.500 C 13.500 38.969, 13.069 38.450, 10.744 38.183 C 8.986 37.981, 7.779 38.412, 7.410 39.375 M 9.553 40.915 C 9.231 41.436, 9.394 42.125, 9.915 42.447 C 10.436 42.769, 11.125 42.606, 11.447 42.085 C 11.769 41.564, 11.606 40.875, 11.085 40.553 C 10.564 40.231, 9.875 40.394, 9.553 40.915 M 53 41 C 53 41.550, 53.450 42, 54 42 C 54.550 42, 55 41.550, 55 41 C 55 40.450, 54.550 40, 54 40 C 53.450 40, 53 40.450, 53 41 M 52.638 46.500 C 52.955 47.325, 53.568 48, 54 48 C 54.432 48, 55.045 47.325, 55.362 46.500 C 55.751 45.485, 55.311 45, 54 45 C 52.689 45, 52.249 45.485, 52.638 46.500" stroke="none" fill="#040404" fill-rule="evenodd"/></svg>