<svg version="1.0" xmlns="http://www.w3.org/2000/svg"
 width="50.000000pt" height="50.000000pt" viewBox="0 0 50.000000 50.000000"
 preserveAspectRatio="xMidYMid meet">
<g transform="translate(0.000000,50.000000) scale(0.100000,-0.100000)"
fill="#000000" stroke="none">
<path d="M190 476 c0 -24 -26 -60 -39 -54 -62 33 -61 33 -84 10 -21 -21 -21
-23 -4 -51 9 -16 17 -31 17 -34 0 -15 -34 -37 -56 -37 -23 0 -25 -3 -22 -37 3
-32 7 -38 34 -45 40 -10 48 -30 26 -68 -16 -28 -16 -30 5 -52 22 -22 24 -22
52 -5 16 9 31 17 34 17 14 0 37 -34 37 -56 0 -21 5 -24 35 -24 28 0 35 -4 35
-20 0 -19 7 -20 120 -20 l121 0 -3 102 -3 103 -55 5 -55 6 35 10 c31 9 35 14
38 47 3 34 1 37 -22 37 -22 0 -56 22 -56 37 0 3 8 18 17 34 17 28 17 30 -5 52
-22 21 -24 21 -52 5 -38 -22 -58 -14 -68 26 -7 27 -13 31 -45 34 -34 3 -37 1
-37 -22z m65 -28 c13 -43 55 -60 85 -33 16 14 22 15 35 5 13 -11 13 -15 -2
-41 -22 -38 -6 -74 36 -84 36 -8 45 -45 11 -45 -11 0 -29 -9 -40 -20 -13 -13
-33 -20 -57 -20 -29 0 -34 3 -25 12 20 20 14 79 -10 105 -28 30 -83 31 -115 1
-51 -47 -15 -138 54 -138 32 0 33 -1 33 -42 0 -61 -10 -88 -30 -88 -12 0 -21
10 -25 31 -10 42 -46 58 -84 36 -26 -15 -30 -15 -41 -2 -10 13 -9 19 5 35 27
30 10 72 -33 85 -42 12 -43 41 -1 50 42 10 58 46 36 84 -15 26 -15 30 -2 41
13 10 19 9 35 -5 30 -27 71 -10 84 33 12 42 39 42 51 0z m17 -135 c22 -20 23
-61 1 -85 -34 -38 -103 -11 -103 40 0 54 62 81 102 45z m161 -130 c-29 -2 -77
-2 -105 0 -29 2 -6 3 52 3 58 0 81 -1 53 -3z m47 -93 l0 -70 -100 0 -100 0 0
70 0 70 100 0 100 0 0 -70z"/>
<path d="M350 135 c-7 -9 -21 -13 -31 -10 -23 8 -25 -8 -4 -25 13 -11 20 -9
40 10 14 13 25 27 25 32 0 13 -17 9 -30 -7z"/>
<path d="M350 85 c-7 -9 -21 -13 -31 -10 -23 8 -25 -8 -4 -25 13 -11 20 -9 40
10 14 13 25 27 25 32 0 13 -17 9 -30 -7z"/>
</g>
</svg>
