<svg xmlns="http://www.w3.org/2000/svg" width="50" height="50" viewBox="0 0 50 50" version="1.1"><path d="" stroke="none" fill="#080404" fill-rule="evenodd"/><path d="M 3 25 L 3 48 21 48 C 38.333 48, 39 47.926, 39 46 C 39 44.900, 38.550 44, 38 44 C 37.450 44, 37 44.450, 37 45 C 37 45.625, 31 46, 21 46 L 5 46 5 25 L 5 4 15 4 L 25 4 25 10 L 25 16 31 16 C 35.667 16, 37 16.333, 37 17.500 C 37 18.325, 37.450 19, 38 19 C 38.550 19, 39 17.975, 39 16.721 C 39 15.252, 36.769 12.232, 32.723 8.221 L 26.446 2 14.723 2 L 3 2 3 25 M 27 10 L 27 14 31.203 14 L 35.406 14 31.500 10 C 29.352 7.800, 27.460 6, 27.297 6 C 27.134 6, 27 7.800, 27 10 M 38.500 20.015 C 36.556 21.312, 34.125 21.942, 31.595 21.804 C 28.131 21.615, 27.257 22.079, 23.845 25.924 C 19.958 30.305, 19.179 32.375, 20.996 33.498 C 21.623 33.885, 21.422 35.216, 20.456 37.086 L 18.918 40.059 21.709 39.389 C 23.244 39.021, 25.789 38.069, 27.365 37.275 C 30.093 35.899, 30.382 35.978, 33.430 38.932 C 36.633 42.037, 41.435 44, 45.827 44 C 49.842 44, 47.642 41.578, 42.921 40.801 C 39.476 40.234, 37.668 39.150, 34.732 35.888 C 32.660 33.586, 31.136 31.530, 31.347 31.320 C 31.557 31.110, 33.093 31.720, 34.761 32.677 C 37.309 34.140, 38.048 34.205, 39.396 33.086 C 41.686 31.186, 41.377 29.668, 38.837 30.332 C 36.810 30.862, 36.780 30.792, 38.353 29.218 C 39.927 27.644, 40.289 27.817, 44.052 31.934 C 46.679 34.808, 48.410 35.990, 49.051 35.349 C 49.693 34.707, 48.639 32.858, 46.007 30.008 L 41.982 25.648 43.991 23.509 C 48.593 18.611, 44.504 16.008, 38.500 20.015 M 11 23 C 11 23.563, 13.814 24, 17.441 24 C 20.984 24, 24.160 23.550, 24.500 23 C 24.890 22.369, 22.510 22, 18.059 22 C 14.020 22, 11 22.428, 11 23 M 35.500 25.415 C 33.850 26.738, 32.852 28.175, 33.282 28.609 C 33.712 29.043, 35.504 27.958, 37.263 26.199 C 41.009 22.453, 39.842 21.934, 35.500 25.415 M 26.015 27.485 C 21.309 32.340, 22.577 32.635, 28.001 27.948 C 30.666 25.644, 31.867 24.048, 30.946 24.030 C 30.092 24.013, 27.872 25.568, 26.015 27.485 M 11 29 C 11 29.550, 12.773 30, 14.941 30 C 17.109 30, 19.160 29.550, 19.500 29 C 19.878 28.389, 18.344 28, 15.559 28 C 13.052 28, 11 28.450, 11 29 M 27 33 C 27 33.733, 27.300 34.033, 27.667 33.667 C 28.033 33.300, 28.033 32.700, 27.667 32.333 C 27.300 31.967, 27 32.267, 27 33 M 11 35 C 11 35.550, 13.025 36, 15.500 36 C 17.975 36, 20 35.550, 20 35 C 20 34.450, 17.975 34, 15.500 34 C 13.025 34, 11 34.450, 11 35" stroke="none" fill="#040404" fill-rule="evenodd"/></svg>