<svg xmlns="http://www.w3.org/2000/svg" width="32" height="32" viewBox="0 0 32 32" version="1.1"><path d="" stroke="none" fill="#080404" fill-rule="evenodd"/><path d="M 2.655 8.829 C 1.536 10.065, 1 12.444, 1 16.174 C 1 24.383, 2.061 25, 16.174 25 C 30.032 25, 31 24.401, 31 15.826 C 31 7.617, 29.939 7, 15.826 7 C 5.939 7, 4.076 7.259, 2.655 8.829 M 4.750 11.083 C 2.407 13.650, 2.530 18.530, 5 21 C 6.704 22.704, 8.333 23, 16 23 C 26.210 23, 29 21.498, 29 16 C 29 10.431, 26.237 8.989, 15.750 9.083 C 7.976 9.153, 6.221 9.472, 4.750 11.083 M 8 14 C 8 14.583, 11.333 15, 16 15 C 20.667 15, 24 14.583, 24 14 C 24 13.417, 20.667 13, 16 13 C 11.333 13, 8 13.417, 8 14 M 8 18 C 8 18.583, 11.333 19, 16 19 C 20.667 19, 24 18.583, 24 18 C 24 17.417, 20.667 17, 16 17 C 11.333 17, 8 17.417, 8 18" stroke="none" fill="#040404" fill-rule="evenodd"/></svg>