<svg xmlns="http://www.w3.org/2000/svg" width="24" height="24" viewBox="0 0 24 24" version="1.1"><path d="" stroke="none" fill="#080404" fill-rule="evenodd"/><path d="M 2 5 C 2 6.333, 2.667 7, 4 7 C 5.333 7, 6 6.333, 6 5 C 6 3.667, 5.333 3, 4 3 C 2.667 3, 2 3.667, 2 5 M 8 5 C 8 6.704, 8.667 7, 12.500 7 C 16.333 7, 17 6.704, 17 5 C 17 3.296, 16.333 3, 12.500 3 C 8.667 3, 8 3.296, 8 5 M 2 12 C 2 13.333, 2.667 14, 4 14 C 5.333 14, 6 13.333, 6 12 C 6 10.667, 5.333 10, 4 10 C 2.667 10, 2 10.667, 2 12 M 8 12 C 8 13.758, 8.667 14, 13.500 14 C 18.333 14, 19 13.758, 19 12 C 19 10.242, 18.333 10, 13.500 10 C 8.667 10, 8 10.242, 8 12 M 2 19 C 2 20.333, 2.667 21, 4 21 C 5.333 21, 6 20.333, 6 19 C 6 17.667, 5.333 17, 4 17 C 2.667 17, 2 17.667, 2 19 M 8 19 C 8 20.810, 8.667 21, 15 21 C 21.333 21, 22 20.810, 22 19 C 22 17.190, 21.333 17, 15 17 C 8.667 17, 8 17.190, 8 19" stroke="none" fill="#040404" fill-rule="evenodd"/></svg>