<svg xmlns="http://www.w3.org/2000/svg" width="48" height="48" viewBox="0 0 48 48" version="1.1"><path d="M 3 12 C 3 14.667, 3.333 15, 6 15 C 8.667 15, 9 14.667, 9 12 C 9 9.333, 8.667 9, 6 9 C 3.333 9, 3 9.333, 3 12 M 3 24 C 3 26.667, 3.333 27, 6 27 C 8.667 27, 9 26.667, 9 24 C 9 21.333, 8.667 21, 6 21 C 3.333 21, 3 21.333, 3 24 M 3 36 C 3 38.667, 3.333 39, 6 39 C 8.667 39, 9 38.667, 9 36 C 9 33.333, 8.667 33, 6 33 C 3.333 33, 3 33.333, 3 36" stroke="none" fill="#44a4ed" fill-rule="evenodd"/><path d="M 13 12 L 13 15 29 15 L 45 15 45 12 L 45 9 29 9 L 13 9 13 12 M 13 24 L 13 27 29 27 L 45 27 45 24 L 45 21 29 21 L 13 21 13 24 M 13 36 L 13 39 29 39 L 45 39 45 36 L 45 33 29 33 L 13 33 13 36" stroke="none" fill="#1c5cbc" fill-rule="evenodd"/></svg>