<svg xmlns="http://www.w3.org/2000/svg" width="50" height="50" viewBox="0 0 50 50" version="1.1"><path d="" stroke="none" fill="#080404" fill-rule="evenodd"/><path d="M 4 10.500 L 4 18 16 18 L 28 18 28 10.500 L 28 3 16 3 L 4 3 4 10.500 M 38.815 15.250 C 38.655 21.522, 38.580 21.792, 38.263 17.250 C 37.954 12.839, 37.584 12, 35.948 12 C 34.277 12, 34 12.711, 34 17 L 34 22 26.500 22 C 22.167 22, 19 21.578, 19 21 C 19 20.450, 17.650 20, 16 20 C 14.350 20, 13 20.450, 13 21 C 13 21.564, 10.167 22, 6.500 22 C 0.648 22, 0 22.201, 0 24.017 C 0 25.994, 0.507 26.029, 25.250 25.767 L 50.500 25.500 50.819 23.255 C 51.059 21.562, 50.752 21.158, 49.569 21.612 C 48.249 22.118, 48 21.244, 48 16.107 C 48 10.716, 47.771 10, 46.048 10 C 44.357 10, 44.048 10.839, 43.740 16.250 L 43.385 22.500 43.193 15.250 C 43.019 8.731, 42.798 8, 41 8 C 39.201 8, 38.981 8.728, 38.815 15.250 M 0.158 24 C 0.158 25.375, 0.385 25.938, 0.662 25.250 C 0.940 24.563, 0.940 23.438, 0.662 22.750 C 0.385 22.063, 0.158 22.625, 0.158 24 M 2 38 C 2 44, 2.400 48, 3 48 C 3.571 48, 4 45, 4 41 L 4 34 16 34 L 28 34 28 31 L 28 28 15 28 L 2 28 2 38 M 30 32.500 L 30 37 39 37 L 48 37 48 32.500 L 48 28 39 28 L 30 28 30 32.500 M 37 32 C 37 32.550, 37.900 33, 39 33 C 40.100 33, 41 32.550, 41 32 C 41 31.450, 40.100 31, 39 31 C 37.900 31, 37 31.450, 37 32 M 30 43.500 L 30 48 39 48 L 48 48 48 43.500 L 48 39 39 39 L 30 39 30 43.500 M 37 43 C 37 43.550, 37.900 44, 39 44 C 40.100 44, 41 43.550, 41 43 C 41 42.450, 40.100 42, 39 42 C 37.900 42, 37 42.450, 37 43" stroke="none" fill="#040404" fill-rule="evenodd"/></svg>