<svg xmlns="http://www.w3.org/2000/svg" width="50" height="50" viewBox="0 0 50 50" version="1.1"><path d="" stroke="none" fill="#080404" fill-rule="evenodd"/><path d="M 7 25 L 7 48 20.559 48 C 29.344 48, 33.900 47.648, 33.500 47 C 33.144 46.424, 27.823 46, 20.941 46 L 9 46 9 25 L 9 4 19 4 L 29 4 29 10 L 29 16 35 16 L 41 16 41 21.500 C 41 24.525, 41.450 27, 42 27 C 42.560 27, 43 24.240, 43 20.721 L 43 14.442 36.723 8.221 L 30.446 2 18.723 2 L 7 2 7 25 M 31 10 L 31 14 35.203 14 L 39.406 14 35.500 10 C 33.352 7.800, 31.460 6, 31.297 6 C 31.134 6, 31 7.800, 31 10 M 15 25 C 15 25.600, 19 26, 25 26 C 31 26, 35 25.600, 35 25 C 35 24.400, 31 24, 25 24 C 19 24, 15 24.400, 15 25 M 34 29.359 C 30.998 30.480, 30.456 31.180, 30.193 34.273 C 29.711 39.938, 35.986 50, 40 50 C 43.886 50, 50 40.223, 50 34.007 C 50 31.600, 49.415 30.722, 47.250 29.874 C 42.842 28.149, 37.767 27.951, 34 29.359 M 15 31 C 15 31.564, 17.833 32, 21.500 32 C 25.167 32, 28 31.564, 28 31 C 28 30.436, 25.167 30, 21.500 30 C 17.833 30, 15 30.436, 15 31 M 35.926 31.824 C 32.693 33.340, 32.413 33.787, 33.002 36.500 C 33.848 40.400, 35.319 43.073, 37.907 45.416 C 39.961 47.275, 40.039 47.275, 42.093 45.416 C 44.697 43.059, 46.103 40.476, 47.038 36.330 C 47.803 32.938, 48.032 33.153, 41 30.676 C 40.175 30.386, 37.892 30.902, 35.926 31.824 M 15 37 C 15 37.571, 18 38, 22 38 C 26 38, 29 37.571, 29 37 C 29 36.429, 26 36, 22 36 C 18 36, 15 36.429, 15 37" stroke="none" fill="#040404" fill-rule="evenodd"/></svg>