<svg xmlns="http://www.w3.org/2000/svg" width="60" height="60" viewBox="0 0 60 60" version="1.1"><path d="" stroke="none" fill="#080404" fill-rule="evenodd"/><path d="M 23.510 5.250 C 23.870 8.138, 24.915 16.800, 25.832 24.500 C 27.377 37.468, 27.659 38.523, 29.658 38.807 C 32.252 39.177, 32.332 38.861, 34.509 19.500 C 35.375 11.800, 36.326 4.263, 36.621 2.750 L 37.159 0 30.007 0 L 22.856 -0 23.510 5.250 M 16.201 3.904 L 12.902 6.728 16.004 19.114 C 21.341 40.418, 20.804 39, 23.539 39 C 26.549 39, 26.533 39.654, 24.012 19.440 C 22.918 10.673, 22.018 2.938, 22.012 2.250 C 21.993 0.234, 19.741 0.875, 16.201 3.904 M 37.599 4.681 C 36.449 11.998, 34 33.460, 34 36.220 C 34 38.480, 34.444 39, 36.376 39 C 38.604 39, 38.980 38.083, 42.417 24.250 C 44.432 16.137, 46.258 8.825, 46.473 8 C 46.689 7.175, 45.591 5.491, 44.033 4.257 C 39.144 0.385, 38.265 0.443, 37.599 4.681 M 16 49.500 C 16 56.389, 15.716 58, 14.500 58 C 13.675 58, 13 58.450, 13 59 C 13 59.627, 19.333 60, 30 60 C 40.667 60, 47 59.627, 47 59 C 47 58.450, 46.325 58, 45.500 58 C 44.284 58, 44 56.389, 44 49.500 L 44 41 30 41 L 16 41 16 49.500 M 23.160 51.204 C 23.297 54.881, 23.378 55.032, 23.723 52.253 C 24.163 48.710, 26.370 47.571, 31.629 48.172 C 34.054 48.449, 34.549 49.005, 34.813 51.750 C 34.986 53.538, 35.575 55, 36.124 55 C 36.672 55, 36.981 53.313, 36.810 51.250 L 36.500 47.500 29.750 47.204 L 23 46.909 23.160 51.204" stroke="none" fill="#040404" fill-rule="evenodd"/></svg>