<svg xmlns="http://www.w3.org/2000/svg" width="50" height="50" viewBox="0 0 50 50" version="1.1"><path d="" stroke="none" fill="#080404" fill-rule="evenodd"/><path d="M 21.083 5.400 C 19.810 6.934, 19.975 10.956, 21.505 15.722 C 22.076 17.501, 21.699 18.180, 19.609 19.132 C 18.174 19.786, 17 20.924, 17 21.661 C 17 22.668, 18.982 23, 25 23 C 31.018 23, 33 22.668, 33 21.661 C 33 20.924, 31.826 19.786, 30.391 19.132 C 28.301 18.180, 27.924 17.501, 28.495 15.722 C 29.753 11.803, 30.086 7.536, 29.231 6.265 C 27.828 4.179, 22.561 3.620, 21.083 5.400 M 7 19 C 7 22.333, 7.444 25, 8 25 C 8.550 25, 9 22.750, 9 20 L 9 15 13.500 15 C 15.975 15, 18 14.550, 18 14 C 18 13.450, 15.525 13, 12.500 13 L 7 13 7 19 M 32 14 C 32 14.550, 34.025 15, 36.500 15 L 41 15 41 20 C 41 22.750, 41.450 25, 42 25 C 42.556 25, 43 22.333, 43 19 L 43 13 37.500 13 C 34.475 13, 32 13.450, 32 14 M 4.083 28.400 C 2.810 29.934, 2.975 33.956, 4.505 38.722 C 5.076 40.501, 4.699 41.180, 2.609 42.132 C 1.174 42.786, 0 43.924, 0 44.661 C 0 45.668, 1.982 46, 8 46 C 14.018 46, 16 45.668, 16 44.661 C 16 43.924, 14.826 42.786, 13.391 42.132 C 11.301 41.180, 10.924 40.501, 11.495 38.722 C 12.753 34.803, 13.086 30.536, 12.231 29.265 C 10.828 27.179, 5.561 26.620, 4.083 28.400 M 21.083 28.400 C 19.810 29.934, 19.975 33.956, 21.505 38.722 C 22.076 40.501, 21.699 41.180, 19.609 42.132 C 18.174 42.786, 17 43.924, 17 44.661 C 17 45.668, 18.982 46, 25 46 C 31.018 46, 33 45.668, 33 44.661 C 33 43.924, 31.826 42.786, 30.391 42.132 C 28.301 41.180, 27.924 40.501, 28.495 38.722 C 29.753 34.803, 30.086 30.536, 29.231 29.265 C 27.828 27.179, 22.561 26.620, 21.083 28.400 M 38.083 28.400 C 36.810 29.934, 36.975 33.956, 38.505 38.722 C 39.076 40.501, 38.699 41.180, 36.609 42.132 C 35.174 42.786, 34 43.924, 34 44.661 C 34 45.668, 35.982 46, 42 46 C 48.018 46, 50 45.668, 50 44.661 C 50 43.924, 48.826 42.786, 47.391 42.132 C 45.301 41.180, 44.924 40.501, 45.495 38.722 C 46.753 34.803, 47.086 30.536, 46.231 29.265 C 44.828 27.179, 39.561 26.620, 38.083 28.400" stroke="none" fill="#040404" fill-rule="evenodd"/></svg>