<svg xmlns="http://www.w3.org/2000/svg" width="32" height="32" viewBox="0 0 32 32" version="1.1"><path d="" stroke="none" fill="#383434" fill-rule="evenodd"/><path d="M 7.250 2.745 L 4 4.363 4 13.781 C 4 23.127, 4.026 23.226, 7.341 26.541 C 11.068 30.268, 14.682 31.548, 18.659 30.549 C 20.121 30.182, 22.821 28.379, 24.659 26.541 C 27.974 23.226, 28 23.126, 28 13.785 L 28 4.370 24.466 2.685 C 20.036 0.573, 11.556 0.602, 7.250 2.745 M 13.500 3.697 C 12.400 3.925, 10.218 4.610, 8.651 5.218 C 5.805 6.323, 5.803 6.331, 6.163 14.255 C 6.503 21.742, 6.705 22.347, 9.777 25.092 C 14.042 28.903, 17.958 28.903, 22.223 25.092 C 25.295 22.347, 25.497 21.742, 25.837 14.255 C 26.197 6.327, 26.196 6.324, 23.349 5.243 C 19.444 3.762, 15.883 3.203, 13.500 3.697 M 17.774 14.692 C 14.267 18.200, 13.989 18.300, 12.212 16.692 C 8.745 13.554, 7.712 15.209, 10.867 18.847 C 11.894 20.031, 13.151 21, 13.659 21 C 14.729 21, 23 12.776, 23 11.712 C 23 10.190, 21.317 11.149, 17.774 14.692" stroke="none" fill="#343434" fill-rule="evenodd"/></svg>