<svg xmlns="http://www.w3.org/2000/svg" width="50" height="50" viewBox="0 0 50 50" version="1.1"><path d="" stroke="none" fill="#080404" fill-rule="evenodd"/><path d="M 0.444 8.285 C 0.173 8.992, 0.074 17.429, 0.225 27.035 L 0.500 44.500 4.901 44.815 C 7.715 45.016, 9.635 44.656, 10.227 43.815 C 10.954 42.782, 11.261 42.768, 11.659 43.750 C 12.028 44.659, 15.671 45, 25 45 C 34.289 45, 37.994 44.655, 38.417 43.750 C 38.883 42.750, 39.117 42.750, 39.583 43.750 C 40.332 45.354, 48.208 45.392, 49.800 43.800 C 50.656 42.944, 50.957 37.432, 50.850 24.550 C 50.768 14.622, 50.525 7.625, 50.310 9 L 49.919 11.500 38.061 11.193 C 27.300 10.914, 26.156 10.706, 25.695 8.943 C 25.227 7.154, 24.227 7, 13.062 7 C 4.108 7, 0.808 7.336, 0.444 8.285 M 0.415 26 C 0.415 36.175, 0.564 40.337, 0.745 35.250 C 0.927 30.162, 0.927 21.837, 0.745 16.750 C 0.564 11.662, 0.415 15.825, 0.415 26 M 2.441 10.292 C 2.169 11.003, 2.070 18.540, 2.223 27.042 L 2.500 42.500 5.250 42.816 C 6.763 42.990, 8 42.653, 8 42.066 C 8 41.480, 9.350 41, 11 41 C 12.650 41, 14 41.450, 14 42 C 14 42.606, 18.333 43, 25 43 C 31.667 43, 36 42.606, 36 42 C 36 41.450, 37.350 41, 39 41 C 40.650 41, 42 41.480, 42 42.066 C 42 42.653, 43.237 42.990, 44.750 42.816 L 47.500 42.500 47.500 28 L 47.500 13.500 35.859 13.219 C 25.245 12.963, 24.172 12.765, 23.702 10.969 C 23.233 9.174, 22.293 9, 13.062 9 C 5.709 9, 2.801 9.354, 2.441 10.292 M 10.383 19.445 C 10.049 20.314, 10.068 22.965, 10.423 25.336 C 11.014 29.274, 10.850 29.747, 8.535 30.802 C 3.976 32.879, 5.715 34, 13.500 34 C 21.228 34, 23.027 32.881, 18.566 30.848 C 16.369 29.847, 16.149 29.189, 16.316 24.119 C 16.494 18.677, 16.413 18.490, 13.744 18.183 C 11.940 17.975, 10.780 18.411, 10.383 19.445 M 26 23 C 26 23.593, 29.667 24, 35 24 C 40.333 24, 44 23.593, 44 23 C 44 22.407, 40.333 22, 35 22 C 29.667 22, 26 22.407, 26 23 M 26 28 C 26 28.593, 29.667 29, 35 29 C 40.333 29, 44 28.593, 44 28 C 44 27.407, 40.333 27, 35 27 C 29.667 27, 26 27.407, 26 28 M 26 33 C 26 33.593, 29.667 34, 35 34 C 40.333 34, 44 33.593, 44 33 C 44 32.407, 40.333 32, 35 32 C 29.667 32, 26 32.407, 26 33" stroke="none" fill="#040404" fill-rule="evenodd"/></svg>