<svg xmlns="http://www.w3.org/2000/svg" width="50" height="50" viewBox="0 0 50 50" version="1.1"><path d="" stroke="none" fill="#080404" fill-rule="evenodd"/><path d="M 8.200 3.200 C 6.653 4.747, 6.653 9.253, 8.200 10.800 C 9.747 12.347, 14.253 12.347, 15.800 10.800 C 17.347 9.253, 17.347 4.747, 15.800 3.200 C 14.253 1.653, 9.747 1.653, 8.200 3.200 M 29 3 C 29 3.550, 26.750 4, 24 4 C 21.250 4, 19 4.450, 19 5 C 19 5.617, 24.167 6, 32.500 6 L 46 6 46 19 L 46 32 33 32 C 25 32, 20 32.385, 20 33 C 20 33.550, 21.808 34, 24.017 34 L 28.034 34 25.517 38.967 C 22.601 44.720, 22.547 45, 24.348 45 C 25.090 45, 26.508 43.200, 27.500 41 C 28.492 38.800, 29.617 37, 30 37 C 30.383 37, 31.508 38.800, 32.500 41 C 33.492 43.200, 34.910 45, 35.652 45 C 37.453 45, 37.399 44.720, 34.483 38.967 L 31.966 34 39.983 34 L 48 34 48 19 L 48 4 39.500 4 C 34.500 4, 31 3.588, 31 3 C 31 2.450, 30.550 2, 30 2 C 29.450 2, 29 2.450, 29 3 M 9.736 5.598 C 8.646 6.688, 10.185 9, 12 9 C 13.815 9, 15.354 6.688, 14.264 5.598 C 13.492 4.825, 10.508 4.825, 9.736 5.598 M 3.200 14.200 C 2.447 14.953, 2 18.710, 2 24.294 C 2 32.281, 2.199 33.239, 3.957 33.699 C 5.611 34.132, 5.959 35.238, 6.207 40.855 L 6.500 47.500 12 47.500 L 17.500 47.500 17.777 33.295 L 18.054 19.090 24.777 18.795 C 31.203 18.513, 31.500 18.389, 31.500 16 C 31.500 13.553, 31.320 13.494, 23.019 13.206 C 15.807 12.956, 14.339 13.180, 13.211 14.706 C 11.952 16.409, 11.834 16.411, 10.893 14.750 C 9.752 12.738, 5.002 12.398, 3.200 14.200 M 5.571 16.571 C 3.781 18.362, 3.281 31, 5 31 C 5.550 31, 6 28.525, 6 25.500 C 6 22.475, 6.437 20, 6.970 20 C 7.530 20, 8.059 25.283, 8.220 32.503 C 8.512 45.540, 10.256 49.943, 10.798 39.010 C 11.189 31.117, 12.823 31.280, 13.202 39.250 C 13.366 42.688, 13.950 45.500, 14.500 45.500 C 15.107 45.500, 15.609 39.898, 15.777 31.250 L 16.055 17 22.527 17 C 26.176 17, 29 16.564, 29 16 C 29 15.436, 26.175 15, 22.526 15 C 16.343 15, 15.981 15.135, 14.500 18 C 13.647 19.650, 12.522 21, 12 21 C 11.478 21, 10.353 19.650, 9.500 18 C 7.699 14.518, 7.645 14.498, 5.571 16.571" stroke="none" fill="#040404" fill-rule="evenodd"/></svg>