<svg xmlns="http://www.w3.org/2000/svg" width="50" height="50" viewBox="0 0 50 50" version="1.1"><path d="" stroke="none" fill="#080404" fill-rule="evenodd"/><path d="M 20.400 0.709 C 16.965 3.178, 15.858 11.906, 18.532 15.441 C 20.971 18.666, 20.274 20.573, 15.939 22.527 C 10.901 24.799, 10 26.436, 10 33.318 C 10 37.926, 9.691 38.847, 8 39.290 C 5.183 40.026, 5.183 45, 8 45 C 9.333 45, 10 45.667, 10 47 C 10 48.100, 10.450 49, 11 49 C 11.550 49, 12 48.100, 12 47 C 12 45.103, 12.667 45, 25 45 C 37.333 45, 38 45.103, 38 47 C 38 48.100, 38.450 49, 39 49 C 39.550 49, 40 48.100, 40 47 C 40 45.667, 40.667 45, 42 45 C 44.817 45, 44.817 40.026, 42 39.290 C 40.309 38.847, 40 37.926, 40 33.318 C 40 26.436, 39.099 24.799, 34.061 22.527 C 29.726 20.573, 29.029 18.666, 31.468 15.441 C 33.525 12.722, 33.396 5.710, 31.240 3.048 C 29.393 0.767, 22.414 -0.739, 20.400 0.709 M 21.605 3.537 C 20.722 4.420, 20 6.568, 20 8.311 C 20 12.620, 23.155 19.993, 25 19.993 C 28.325 19.993, 31.543 6.479, 28.750 4.245 C 26.203 2.207, 23.230 1.913, 21.605 3.537 M 22 23.500 C 22 23.775, 22.225 24, 22.500 24 C 22.775 24, 23 23.775, 23 23.500 C 23 23.225, 22.775 23, 22.500 23 C 22.225 23, 22 23.225, 22 23.500 M 27 23.500 C 27 23.775, 27.225 24, 27.500 24 C 27.775 24, 28 23.775, 28 23.500 C 28 23.225, 27.775 23, 27.500 23 C 27.225 23, 27 23.225, 27 23.500 M 16.500 25.155 C 15.400 25.756, 13.938 26.954, 13.250 27.815 C 11.767 29.675, 11.558 39, 13 39 C 13.550 39, 14 37.904, 14 36.565 C 14 31.974, 15.808 28.834, 18.252 29.181 C 21.147 29.592, 21.947 33.711, 19.320 34.682 C 17.464 35.367, 16.043 36.902, 16.015 38.250 C 16.007 38.663, 17.804 39, 20.008 39 C 23.672 39, 23.917 38.839, 22.851 37.132 C 21.308 34.663, 22.423 32, 25 32 C 27.577 32, 28.692 34.663, 27.149 37.132 C 26.083 38.839, 26.328 39, 29.992 39 C 32.196 39, 33.993 38.663, 33.985 38.250 C 33.957 36.902, 32.536 35.367, 30.680 34.682 C 27.813 33.622, 28.863 29.500, 32 29.500 C 34.187 29.500, 34.615 30.095, 35.418 34.250 C 35.922 36.862, 36.710 39, 37.168 39 C 38.134 39, 38.296 30.936, 37.379 28.545 C 36.813 27.070, 31.127 23.414, 30.583 24.176 C 30.456 24.354, 29.342 25.962, 28.108 27.750 C 26.874 29.538, 25.449 31, 24.941 31 C 24.434 31, 23.002 29.431, 21.759 27.512 C 19.236 23.617, 19.277 23.636, 16.500 25.155 M 8.500 42 C 8.097 42.652, 13.843 43, 25 43 C 36.157 43, 41.903 42.652, 41.500 42 C 41.130 41.401, 34.509 41, 25 41 C 15.491 41, 8.870 41.401, 8.500 42" stroke="none" fill="#040404" fill-rule="evenodd"/></svg>