<svg xmlns="http://www.w3.org/2000/svg" width="80" height="80" viewBox="0 0 80 80" version="1.1"><path d="" stroke="none" fill="#080404" fill-rule="evenodd"/><path d="M 20.758 8.515 C 21.022 9.898, 21.635 11.274, 22.119 11.574 C 22.604 11.873, 23 15.016, 23 18.559 C 23 22.102, 23.413 25, 23.918 25 C 25.020 25, 25.825 10.644, 24.750 10.167 C 24.337 9.983, 24 9.421, 24 8.917 C 24 8.388, 33.727 8, 47 8 C 61.667 8, 70 8.362, 70 9 C 70 9.550, 69.662 10, 69.250 9.999 C 68.838 9.999, 68.633 22.149, 68.796 36.999 L 69.092 64 57.546 64 C 50.515 64, 46 64.391, 46 65 C 46 65.613, 50.833 66, 58.500 66 L 71 66 71 39.059 C 71 24.241, 71.396 11.873, 71.881 11.574 C 72.365 11.274, 72.978 9.898, 73.242 8.515 L 73.723 6 47 6 L 20.277 6 20.758 8.515 M 28 11 C 28 11.550, 28.450 12, 29 12 C 29.550 12, 30 11.550, 30 11 C 30 10.450, 29.550 10, 29 10 C 28.450 10, 28 10.450, 28 11 M 32 11 C 32 11.550, 32.450 12, 33 12 C 33.550 12, 34 11.550, 34 11 C 34 10.450, 33.550 10, 33 10 C 32.450 10, 32 10.450, 32 11 M 36 11 C 36 11.550, 36.450 12, 37 12 C 37.550 12, 38 11.550, 38 11 C 38 10.450, 37.550 10, 37 10 C 36.450 10, 36 10.450, 36 11 M 40 11 C 40 11.550, 40.450 12, 41 12 C 41.550 12, 42 11.550, 42 11 C 42 10.450, 41.550 10, 41 10 C 40.450 10, 40 10.450, 40 11 M 44 11 C 44 11.550, 44.450 12, 45 12 C 45.550 12, 46 11.550, 46 11 C 46 10.450, 45.550 10, 45 10 C 44.450 10, 44 10.450, 44 11 M 48 11 C 48 11.550, 48.450 12, 49 12 C 49.550 12, 50 11.550, 50 11 C 50 10.450, 49.550 10, 49 10 C 48.450 10, 48 10.450, 48 11 M 52 11 C 52 11.550, 52.450 12, 53 12 C 53.550 12, 54 11.550, 54 11 C 54 10.450, 53.550 10, 53 10 C 52.450 10, 52 10.450, 52 11 M 56 11 C 56 11.550, 56.450 12, 57 12 C 57.550 12, 58 11.550, 58 11 C 58 10.450, 57.550 10, 57 10 C 56.450 10, 56 10.450, 56 11 M 60 11 C 60 11.550, 60.450 12, 61 12 C 61.550 12, 62 11.550, 62 11 C 62 10.450, 61.550 10, 61 10 C 60.450 10, 60 10.450, 60 11 M 64 11 C 64 11.550, 64.450 12, 65 12 C 65.550 12, 66 11.550, 66 11 C 66 10.450, 65.550 10, 65 10 C 64.450 10, 64 10.450, 64 11 M 29 20 L 29 24 34 24 L 39 24 39 20 L 39 16 34 16 L 29 16 29 20 M 42 20 L 42 24 47 24 L 52 24 52 20 L 52 16 47 16 L 42 16 42 20 M 55 20 L 55 24 60 24 L 65 24 65 20 L 65 16 60 16 L 55 16 55 20 M 31 20 C 31 21.556, 31.667 22, 34 22 C 36.333 22, 37 21.556, 37 20 C 37 18.444, 36.333 18, 34 18 C 31.667 18, 31 18.444, 31 20 M 44 20 C 44 21.556, 44.667 22, 47 22 C 49.333 22, 50 21.556, 50 20 C 50 18.444, 49.333 18, 47 18 C 44.667 18, 44 18.444, 44 20 M 57 20 C 57 21.556, 57.667 22, 60 22 C 62.333 22, 63 21.556, 63 20 C 63 18.444, 62.333 18, 60 18 C 57.667 18, 57 18.444, 57 20 M 19 28.118 C 17.625 28.664, 15.048 30.513, 13.274 32.228 C 10.137 35.260, 10.103 35.384, 12.024 36.729 C 13.576 37.816, 14 39.269, 14 43.498 C 14 46.459, 14.450 49.160, 15 49.500 C 15.550 49.840, 16 50.810, 16 51.655 C 16 52.500, 16.865 54.406, 17.922 55.890 L 19.843 58.588 13.172 62.544 C 6.765 66.343, 6.488 66.669, 6.193 70.750 L 5.885 75 26 75 L 46.115 75 45.807 70.750 C 45.513 66.677, 45.227 66.338, 38.938 62.609 L 32.377 58.719 35.307 53.109 C 39.082 45.884, 40.175 35.956, 37.518 33.020 C 33.002 28.030, 24.738 25.842, 19 28.118 M 42 32 L 42 36 47 36 L 52 36 52 32 L 52 28 47 28 L 42 28 42 32 M 55 32 L 55 36 60 36 L 65 36 65 32 L 65 28 60 28 L 55 28 55 32 M 22.464 29.690 C 21.345 29.906, 19.244 31.077, 17.796 32.291 C 15.677 34.070, 15.265 35.114, 15.681 37.651 C 16.189 40.747, 16.231 40.769, 18.099 38.901 C 19.145 37.855, 21.012 36.980, 22.250 36.956 C 23.488 36.932, 26.241 36.292, 28.369 35.533 C 32.077 34.211, 32.337 34.261, 34.619 36.723 C 35.929 38.136, 37 38.972, 37 38.580 C 37 34.391, 27.671 28.685, 22.464 29.690 M 44 32 C 44 33.556, 44.667 34, 47 34 C 49.333 34, 50 33.556, 50 32 C 50 30.444, 49.333 30, 47 30 C 44.667 30, 44 30.444, 44 32 M 57 32 C 57 33.556, 57.667 34, 60 34 C 62.333 34, 63 33.556, 63 32 C 63 30.444, 62.333 30, 60 30 C 57.667 30, 57 30.444, 57 32 M 29.500 38.046 C 28.400 38.498, 25.818 39.142, 23.762 39.477 C 19.711 40.137, 17.913 42.349, 17.786 46.831 C 17.673 50.806, 20.648 55.874, 23.518 56.594 C 30.602 58.372, 35.498 52.047, 33.853 43.242 C 32.823 37.732, 32.168 36.949, 29.500 38.046 M 42 44 L 42 48 47 48 L 52 48 52 44 L 52 40 47 40 L 42 40 42 44 M 55 44 L 55 48 60 48 L 65 48 65 44 L 65 40 60 40 L 55 40 55 44 M 44 44 C 44 45.556, 44.667 46, 47 46 C 49.333 46, 50 45.556, 50 44 C 50 42.444, 49.333 42, 47 42 C 44.667 42, 44 42.444, 44 44 M 57 44 C 57 45.556, 57.667 46, 60 46 C 62.333 46, 63 45.556, 63 44 C 63 42.444, 62.333 42, 60 42 C 57.667 42, 57 42.444, 57 44 M 21 47 C 21 47.550, 21.450 48, 22 48 C 22.550 48, 23 47.550, 23 47 C 23 46.450, 22.550 46, 22 46 C 21.450 46, 21 46.450, 21 47 M 29 47 C 29 47.550, 29.450 48, 30 48 C 30.550 48, 31 47.550, 31 47 C 31 46.450, 30.550 46, 30 46 C 29.450 46, 29 46.450, 29 47 M 42 56 L 42 60 47 60 L 52 60 52 56 L 52 52 47 52 L 42 52 42 56 M 55 56 L 55 60 60 60 L 65 60 65 56 L 65 52 60 52 L 55 52 55 56 M 44 56 C 44 57.556, 44.667 58, 47 58 C 49.333 58, 50 57.556, 50 56 C 50 54.444, 49.333 54, 47 54 C 44.667 54, 44 54.444, 44 56 M 57 56 C 57 57.556, 57.667 58, 60 58 C 62.333 58, 63 57.556, 63 56 C 63 54.444, 62.333 54, 60 54 C 57.667 54, 57 54.444, 57 56 M 23.134 61.250 C 23.649 62.212, 24.939 63, 26 63 C 27.061 63, 28.351 62.212, 28.866 61.250 C 29.682 59.726, 29.312 59.500, 26 59.500 C 22.688 59.500, 22.318 59.726, 23.134 61.250 M 18.064 62.939 C 16.880 63.689, 16.856 64.121, 17.926 65.411 C 18.640 66.271, 18.941 67.712, 18.595 68.614 C 17.801 70.683, 19.664 73, 22.122 73 C 24.667 73, 24.624 67.328, 22.056 64.250 C 19.923 61.693, 19.996 61.717, 18.064 62.939 M 29.750 64.470 C 27.317 67.815, 27.395 73, 29.878 73 C 32.336 73, 34.199 70.683, 33.405 68.614 C 33.059 67.712, 33.360 66.271, 34.074 65.411 C 35.144 64.121, 35.120 63.689, 33.936 62.939 C 31.939 61.676, 31.725 61.754, 29.750 64.470 M 10.646 67.452 C 6.780 71.035, 7.171 73, 11.750 73 C 15.662 73, 15.792 72.717, 15.077 65.750 C 14.934 64.360, 13.308 64.985, 10.646 67.452 M 36.923 65.750 C 36.208 72.717, 36.338 73, 40.250 73 C 44.829 73, 45.220 71.035, 41.354 67.452 C 38.692 64.985, 37.066 64.360, 36.923 65.750" stroke="none" fill="#040404" fill-rule="evenodd"/></svg>