<svg xmlns="http://www.w3.org/2000/svg" width="30" height="30" viewBox="0 0 30 30" version="1.1"><path d="" stroke="none" fill="#080404" fill-rule="evenodd"/><path d="M 8.500 4.977 C 5.750 6.596, 3.545 8.388, 3.600 8.960 C 3.655 9.532, 3.767 13.600, 3.850 18 L 4 26 15 26 L 26 26 26 18.582 C 26 14.502, 26.254 10.501, 26.565 9.692 C 26.953 8.681, 25.429 7.248, 21.693 5.110 C 18.703 3.400, 15.636 2.008, 14.878 2.017 C 14.120 2.026, 11.250 3.358, 8.500 4.977 M 12.773 11.188 C 10.942 13.481, 11.879 16, 14.563 16 C 16.473 16, 17.411 17.989, 16.113 19.287 C 15.296 20.104, 14.681 20.081, 13.800 19.200 C 13.140 18.540, 12.155 18, 11.611 18 C 11.068 18, 11.608 18.918, 12.811 20.039 C 14.994 22.073, 15.005 22.073, 17.128 20.095 C 19.592 17.800, 19.022 15, 16.090 15 C 13.655 15, 12.405 13.195, 13.845 11.755 C 14.605 10.995, 15.362 11.055, 16.458 11.965 C 18.399 13.576, 18.490 12.348, 16.571 10.429 C 14.767 8.624, 14.832 8.611, 12.773 11.188" stroke="none" fill="#040404" fill-rule="evenodd"/></svg>
