<svg xmlns="http://www.w3.org/2000/svg" width="66" height="66" viewBox="0 0 66 66" version="1.1"><path d="" stroke="none" fill="#080404" fill-rule="evenodd"/><path d="M 23.012 4.978 C 22.132 6.622, 21.240 6.865, 17.727 6.417 C 12.375 5.736, 7.375 8.312, 4.827 13.062 C 2.337 17.705, 2.533 22.033, 5.428 26.298 L 7.855 29.875 5.928 34.948 C 4.867 37.739, 4.003 41.029, 4.006 42.261 C 4.033 53.337, 13.881 62.926, 25.282 62.978 C 31.739 63.008, 36.281 60.924, 41.529 55.523 C 43.974 53.008, 46.852 51, 48.012 51 C 53.766 51, 60.806 43.865, 61.711 37.117 C 62.031 34.731, 61.597 31.265, 60.617 28.391 C 59.724 25.768, 59.377 23.370, 59.847 23.061 C 61.246 22.141, 63 18.277, 63 16.113 C 63 10.339, 57.186 5.313, 51.761 6.398 C 49.383 6.873, 48.381 6.561, 47.291 5.005 C 46.519 3.902, 45.349 3, 44.691 3 C 44.033 3, 41.626 5.947, 39.341 9.548 L 35.186 16.097 30.881 9.548 C 26.351 2.659, 24.751 1.729, 23.012 4.978 M 24.722 7.611 C 24.358 7.976, 24.991 9.584, 26.131 11.184 C 32.780 20.521, 26.337 32.455, 15 31.803 L 10.500 31.544 8.782 36.522 C 2.582 54.491, 25.273 68.131, 38.301 54.265 L 41.101 51.285 38.168 50.070 C 36.555 49.401, 34.086 47.650, 32.681 46.177 C 27.320 40.557, 26.649 33.760, 30.590 24.979 L 33.180 19.207 29.283 13.077 C 27.139 9.706, 25.087 7.246, 24.722 7.611 M 39.487 15.469 C 34.574 23.352, 31 31.622, 31 35.110 C 31 38.781, 34.107 43.903, 37.670 46.105 C 40.417 47.803, 42.181 48.141, 46.252 47.750 C 50.526 47.339, 51.915 46.669, 54.628 43.709 C 58.631 39.341, 59.683 34.570, 57.693 29.807 C 56.460 26.857, 55.594 26.191, 52.304 25.665 C 45.257 24.538, 41.427 17.861, 44.403 11.893 C 46.269 8.154, 46.295 8, 45.071 8 C 44.560 8, 42.047 11.361, 39.487 15.469 M 50.748 10.247 C 45.675 11.945, 45.760 20.023, 50.869 21.805 C 56.806 23.874, 62.061 17.795, 58.730 12.711 C 56.792 9.753, 54.415 9.019, 50.748 10.247 M 10.750 11.080 C 7.952 12.710, 5.793 17.783, 6.510 21.046 C 7.341 24.829, 12.349 29, 16.061 29 C 17.856 29, 20.209 27.891, 22.211 26.102 C 28.922 20.106, 25.122 9.957, 16.194 10.030 C 14.162 10.047, 11.712 10.519, 10.750 11.080 M 14.290 16 C 14.002 17.100, 13.144 18, 12.383 18 C 10.360 18, 10.711 19.193, 13.517 21.855 L 16 24.210 18.483 21.855 C 21.289 19.193, 21.640 18, 19.617 18 C 18.856 18, 17.998 17.100, 17.710 16 C 17.423 14.900, 16.653 14, 16 14 C 15.347 14, 14.577 14.900, 14.290 16 M 49.645 15.484 C 48.935 17.334, 50.814 18.306, 54.177 17.829 C 57.694 17.331, 57.084 14.557, 53.378 14.196 C 51.242 13.988, 50.062 14.395, 49.645 15.484 M 39.208 19.249 C 36.711 22.259, 33.019 31.743, 33.010 35.173 C 32.980 46.185, 48.449 50.411, 54.713 41.102 C 57.343 37.194, 57.750 33, 55.500 33 C 54.675 33, 54 33.865, 54 34.923 C 54 35.981, 52.835 38.231, 51.411 39.923 C 47.292 44.818, 40.201 44.018, 37.163 38.316 C 35.420 35.042, 35.701 33.352, 39.158 26.331 C 41.264 22.053, 41.983 19.583, 41.316 18.916 C 40.648 18.248, 39.946 18.360, 39.208 19.249 M 9.950 38.184 C 8.537 43.433, 9.305 47.400, 12.560 51.668 C 15.864 56, 19.862 58, 25.216 58 C 30.072 58, 36.334 55.105, 36.823 52.633 C 37.253 50.465, 35.749 50.573, 31.774 52.996 C 25.937 56.555, 18.052 54.744, 14.702 49.073 C 12.715 45.708, 12.414 42.959, 13.466 37.750 C 14.084 34.685, 13.935 34, 12.650 34 C 11.650 34, 10.667 35.523, 9.950 38.184" stroke="none" fill="#040404" fill-rule="evenodd"/></svg>