<svg xmlns="http://www.w3.org/2000/svg" width="64" height="64" viewBox="0 0 64 64" version="1.1"><path d="" stroke="none" fill="#080404" fill-rule="evenodd"/><path d="M 18.694 0.639 C 18.312 1.021, 18 2.608, 18 4.167 C 18 6.738, 17.676 7, 14.500 7 C 11.167 7, 11 7.167, 11 10.500 C 11 13.833, 10.833 14, 7.500 14 L 4 14 4 36.883 C 4 59.307, 3.958 59.778, 1.895 60.317 C 0.734 60.621, -0.014 61.458, 0.228 62.184 C 0.564 63.191, 4.053 63.500, 15.083 63.500 L 29.500 63.500 29.798 57.250 C 30.054 51.875, 30.362 51, 32 51 C 33.638 51, 33.946 51.875, 34.202 57.250 L 34.500 63.500 48.363 63.779 C 57.732 63.967, 62.675 63.685, 63.613 62.907 C 65.093 61.678, 65.495 59.922, 64.250 60.118 C 59.913 60.803, 60 61.274, 60 37 L 60 14 56.500 14 C 53.167 14, 53 13.833, 53 10.500 C 53 7.179, 52.824 7, 49.563 7 C 46.417 7, 46.100 6.725, 45.813 3.750 L 45.500 0.500 32.444 0.222 C 25.264 0.070, 19.076 0.257, 18.694 0.639 M 14 35.500 L 14 60 20 60 L 26 60 26 54 L 26 48 32 48 L 38 48 38 54 L 38 60 44 60 L 50 60 50 35.500 L 50 11 32 11 L 14 11 14 35.500 M 18.688 19.646 C 18.309 20.024, 18 21.383, 18 22.667 C 18 24.358, 18.568 25, 20.066 25 C 21.719 25, 22.069 24.464, 21.816 22.327 C 21.500 19.653, 19.981 18.352, 18.688 19.646 M 26.688 19.646 C 26.309 20.024, 26 21.383, 26 22.667 C 26 24.358, 26.568 25, 28.066 25 C 29.719 25, 30.069 24.464, 29.816 22.327 C 29.500 19.653, 27.981 18.352, 26.688 19.646 M 34.688 19.646 C 34.309 20.024, 34 21.383, 34 22.667 C 34 24.358, 34.568 25, 36.066 25 C 37.719 25, 38.069 24.464, 37.816 22.327 C 37.500 19.653, 35.981 18.352, 34.688 19.646 M 42.688 19.646 C 42.309 20.024, 42 21.383, 42 22.667 C 42 24.358, 42.568 25, 44.066 25 C 45.719 25, 46.069 24.464, 45.816 22.327 C 45.500 19.653, 43.981 18.352, 42.688 19.646 M 18.184 31.750 C 18.372 33.387, 19.107 34.500, 20 34.500 C 20.893 34.500, 21.628 33.387, 21.816 31.750 C 22.074 29.511, 21.737 29, 20 29 C 18.263 29, 17.926 29.511, 18.184 31.750 M 26.184 31.750 C 26.372 33.387, 27.107 34.500, 28 34.500 C 28.893 34.500, 29.628 33.387, 29.816 31.750 C 30.074 29.511, 29.737 29, 28 29 C 26.263 29, 25.926 29.511, 26.184 31.750 M 34.184 31.750 C 34.604 35.404, 37.396 35.404, 37.816 31.750 C 38.074 29.511, 37.737 29, 36 29 C 34.263 29, 33.926 29.511, 34.184 31.750 M 42.184 31.750 C 42.604 35.404, 45.396 35.404, 45.816 31.750 C 46.074 29.511, 45.737 29, 44 29 C 42.263 29, 41.926 29.511, 42.184 31.750 M 18.688 38.646 C 18.309 39.024, 18 40.383, 18 41.667 C 18 43.358, 18.568 44, 20.066 44 C 21.719 44, 22.069 43.464, 21.816 41.327 C 21.500 38.653, 19.981 37.352, 18.688 38.646 M 26.688 38.646 C 26.309 39.024, 26 40.383, 26 41.667 C 26 43.358, 26.568 44, 28.066 44 C 29.719 44, 30.069 43.464, 29.816 41.327 C 29.500 38.653, 27.981 37.352, 26.688 38.646 M 34.688 38.646 C 34.309 39.024, 34 40.383, 34 41.667 C 34 43.358, 34.568 44, 36.066 44 C 37.719 44, 38.069 43.464, 37.816 41.327 C 37.500 38.653, 35.981 37.352, 34.688 38.646 M 42.688 38.646 C 42.309 39.024, 42 40.383, 42 41.667 C 42 43.358, 42.568 44, 44.066 44 C 45.719 44, 46.069 43.464, 45.816 41.327 C 45.500 38.653, 43.981 37.352, 42.688 38.646 M 18.184 50.750 C 18.372 52.387, 19.107 53.500, 20 53.500 C 20.893 53.500, 21.628 52.387, 21.816 50.750 C 22.074 48.511, 21.737 48, 20 48 C 18.263 48, 17.926 48.511, 18.184 50.750 M 42.184 50.750 C 42.604 54.404, 45.396 54.404, 45.816 50.750 C 46.074 48.511, 45.737 48, 44 48 C 42.263 48, 41.926 48.511, 42.184 50.750 M -0 62 C -0 62.733, 0.300 63.033, 0.667 62.667 C 1.033 62.300, 1.033 61.700, 0.667 61.333 C 0.300 60.967, -0 61.267, -0 62" stroke="none" fill="#040404" fill-rule="evenodd"/></svg>