<svg xmlns="http://www.w3.org/2000/svg" width="50" height="50" viewBox="0 0 50 50" version="1.1"><path d="" stroke="none" fill="#080404" fill-rule="evenodd"/><path d="M 2 19 L 2 32 25 32 L 48 32 48 19 L 48 6 25 6 L 2 6 2 19 M 4 19 L 4 30 6.500 30 L 9 30 9 19 L 9 8 6.500 8 L 4 8 4 19 M 11 19 L 11 30 25 30 L 39 30 39 19 L 39 8 25 8 L 11 8 11 19 M 41 19 L 41 30 43.500 30 L 46 30 46 19 L 46 8 43.500 8 L 41 8 41 19 M 20.323 13.303 C 19.320 14.570, 17.684 15.917, 16.686 16.296 C 13.889 17.360, 14.742 23.392, 17.750 23.820 C 20.219 24.170, 20.665 23.065, 18.806 21.206 C 17.880 20.280, 18.048 19.571, 19.556 18.054 C 20.625 16.977, 22.080 15.399, 22.789 14.548 C 23.499 13.697, 24.493 13, 25 13 C 25.507 13, 26.501 13.697, 27.211 14.548 C 27.920 15.399, 29.375 16.977, 30.444 18.054 C 31.952 19.571, 32.120 20.280, 31.194 21.206 C 29.335 23.065, 29.781 24.170, 32.250 23.820 C 35.258 23.392, 36.111 17.360, 33.314 16.296 C 32.316 15.917, 30.680 14.570, 29.677 13.303 C 28.537 11.862, 26.786 11, 25 11 C 23.214 11, 21.463 11.862, 20.323 13.303 M 2 33.934 C 2 34.447, 3.237 35.055, 4.750 35.284 L 7.500 35.700 4.750 35.850 C 3.237 35.933, 2 36.450, 2 37 C 2 37.550, 2.243 38, 2.539 38 C 2.836 38, 7.338 38.475, 12.544 39.055 C 22.419 40.157, 31.001 42.623, 36.740 46.009 C 41.353 48.731, 42 48.545, 42 44.500 C 42 42.575, 41.550 41, 41 41 C 40.450 41, 40 41.712, 40 42.583 C 40 45.002, 37.546 43.660, 37.162 41.031 C 36.896 39.213, 37.183 38.856, 38.505 39.364 C 39.429 39.718, 41.269 40.280, 42.593 40.613 C 44.843 41.177, 45 40.949, 45 37.108 C 45 34.849, 44.550 33, 44 33 C 43.450 33, 43 34.173, 43 35.607 C 43 37.573, 42.611 38.065, 41.418 37.607 C 40.548 37.273, 39.648 37, 39.418 37 C 39.188 37, 39 36.100, 39 35 C 39 33.900, 38.550 33, 38 33 C 37.450 33, 37 33.724, 37 34.608 C 37 35.800, 36.387 36.063, 34.637 35.624 C 25.187 33.252, 2 32.051, 2 33.934 M 21.519 37.470 C 24.830 38.190, 29.217 39.482, 31.269 40.339 C 34.785 41.808, 35 41.792, 35 40.071 C 35 38.561, 33.687 38.048, 27.459 37.122 C 17.433 35.630, 13.997 35.832, 21.519 37.470" stroke="none" fill="#040404" fill-rule="evenodd"/></svg>