<svg xmlns="http://www.w3.org/2000/svg" width="50" height="50" viewBox="0 0 50 50" version="1.1"><path d="" stroke="none" fill="#080404" fill-rule="evenodd"/><path d="M 23.174 4.314 C 21.978 5.587, 21 7.348, 21 8.228 C 21 9.559, 20.537 9.652, 18.232 8.782 C 15.888 7.897, 14.511 8.218, 9.232 10.883 L 3 14.029 3 31.014 L 3 48 25 48 L 47 48 47 36.559 C 47 30.010, 46.572 24.854, 46 24.500 C 45.450 24.160, 45 19.937, 45 15.115 C 45 7.245, 44.763 6.126, 42.686 4.174 C 40.733 2.340, 39.196 2, 32.860 2 C 26.301 2, 25.073 2.294, 23.174 4.314 M 26 5.500 C 24.911 6.813, 25.785 7, 33 7 C 40.215 7, 41.089 6.813, 40 5.500 C 39.157 4.485, 36.896 4, 33 4 C 29.104 4, 26.843 4.485, 26 5.500 M 23 9.974 C 23 10.510, 24.350 11.647, 26 12.500 C 28.717 13.905, 29 14.516, 29 18.975 L 29 23.898 32.713 22.347 C 35.553 21.160, 37.199 21.032, 39.713 21.804 L 43 22.813 43 15.906 L 43 9 33 9 C 27.176 9, 23 9.407, 23 9.974 M 9.750 13.566 C 3.104 17.025, 3.782 18.576, 10.500 15.281 L 16 12.583 21.500 15.281 C 24.525 16.764, 27 17.541, 27 17.006 C 27 15.899, 17.734 10.976, 15.783 11.047 C 15.077 11.072, 12.363 12.206, 9.750 13.566 M 31 16 C 31 18.333, 31.444 19, 33 19 C 34.556 19, 35 18.333, 35 16 C 35 13.667, 34.556 13, 33 13 C 31.444 13, 31 13.667, 31 16 M 37 16 C 37 18.333, 37.444 19, 39 19 C 40.556 19, 41 18.333, 41 16 C 41 13.667, 40.556 13, 39 13 C 37.444 13, 37 13.667, 37 16 M 9.750 18.566 L 5 21.038 5 33.519 L 5 46 16 46 L 27 46 27 33.517 L 27 21.034 22.033 18.517 C 16.007 15.463, 15.708 15.464, 9.750 18.566 M 8 24.500 C 8 26.333, 8.533 27, 10 27 C 11.467 27, 12 26.333, 12 24.500 C 12 22.667, 11.467 22, 10 22 C 8.533 22, 8 22.667, 8 24.500 M 14 24.500 C 14 26.333, 14.533 27, 16 27 C 17.467 27, 18 26.333, 18 24.500 C 18 22.667, 17.467 22, 16 22 C 14.533 22, 14 22.667, 14 24.500 M 20 24.500 C 20 26.333, 20.533 27, 22 27 C 23.467 27, 24 26.333, 24 24.500 C 24 22.667, 23.467 22, 22 22 C 20.533 22, 20 22.667, 20 24.500 M 32.250 25.584 L 29 27.006 29 36.503 L 29 46 37 46 L 45 46 45 36.513 L 45 27.027 41.378 25.513 C 37.093 23.723, 36.496 23.728, 32.250 25.584 M 31 29.500 C 31 30.433, 31.944 31, 33.500 31 C 35.056 31, 36 30.433, 36 29.500 C 36 28.567, 35.056 28, 33.500 28 C 31.944 28, 31 28.567, 31 29.500 M 38 29.500 C 38 30.433, 38.944 31, 40.500 31 C 42.056 31, 43 30.433, 43 29.500 C 43 28.567, 42.056 28, 40.500 28 C 38.944 28, 38 28.567, 38 29.500 M 8 32.500 C 8 34.333, 8.533 35, 10 35 C 11.467 35, 12 34.333, 12 32.500 C 12 30.667, 11.467 30, 10 30 C 8.533 30, 8 30.667, 8 32.500 M 14 32.500 C 14 34.333, 14.533 35, 16 35 C 17.467 35, 18 34.333, 18 32.500 C 18 30.667, 17.467 30, 16 30 C 14.533 30, 14 30.667, 14 32.500 M 20 32.500 C 20 34.333, 20.533 35, 22 35 C 23.467 35, 24 34.333, 24 32.500 C 24 30.667, 23.467 30, 22 30 C 20.533 30, 20 30.667, 20 32.500 M 31 35.500 C 31 36.433, 31.944 37, 33.500 37 C 35.056 37, 36 36.433, 36 35.500 C 36 34.567, 35.056 34, 33.500 34 C 31.944 34, 31 34.567, 31 35.500 M 38 35.500 C 38 36.433, 38.944 37, 40.500 37 C 42.056 37, 43 36.433, 43 35.500 C 43 34.567, 42.056 34, 40.500 34 C 38.944 34, 38 34.567, 38 35.500 M 8 40.500 C 8 42.333, 8.533 43, 10 43 C 11.467 43, 12 42.333, 12 40.500 C 12 38.667, 11.467 38, 10 38 C 8.533 38, 8 38.667, 8 40.500 M 14 40.500 C 14 42.333, 14.533 43, 16 43 C 17.467 43, 18 42.333, 18 40.500 C 18 38.667, 17.467 38, 16 38 C 14.533 38, 14 38.667, 14 40.500 M 20 40.500 C 20 42.333, 20.533 43, 22 43 C 23.467 43, 24 42.333, 24 40.500 C 24 38.667, 23.467 38, 22 38 C 20.533 38, 20 38.667, 20 40.500 M 31 41.500 C 31 42.433, 31.944 43, 33.500 43 C 35.056 43, 36 42.433, 36 41.500 C 36 40.567, 35.056 40, 33.500 40 C 31.944 40, 31 40.567, 31 41.500 M 38 41.500 C 38 42.433, 38.944 43, 40.500 43 C 42.056 43, 43 42.433, 43 41.500 C 43 40.567, 42.056 40, 40.500 40 C 38.944 40, 38 40.567, 38 41.500" stroke="none" fill="#040404" fill-rule="evenodd"/></svg>