<svg xmlns="http://www.w3.org/2000/svg" width="100" height="100" viewBox="0 0 100 100" version="1.1"><path d="" stroke="none" fill="#080404" fill-rule="evenodd"/><path d="M 38.187 25.827 C 38.495 43.375, 38.543 43.720, 41.259 47.819 C 45.299 53.919, 50.958 57.297, 57.984 57.805 C 65.065 58.317, 70.030 56.791, 74.743 52.653 C 81.079 47.089, 81.953 43.719, 81.978 24.750 C 81.999 8.790, 81.908 8, 80.046 8 C 78.329 8, 78.055 8.820, 77.796 14.750 C 77.568 19.952, 77.156 21.500, 76 21.500 C 74.844 21.500, 74.432 19.952, 74.204 14.750 C 73.948 8.893, 73.658 8, 72.012 8 C 70.495 8, 70.053 8.852, 69.807 12.250 C 69.592 15.224, 69.050 16.500, 68 16.500 C 66.950 16.500, 66.408 15.224, 66.193 12.250 C 65.948 8.864, 65.502 8, 64.003 8 C 62.550 8, 62.050 8.855, 61.810 11.750 C 61.601 14.279, 61.011 15.500, 60 15.500 C 58.989 15.500, 58.399 14.279, 58.190 11.750 C 57.950 8.855, 57.450 8, 55.997 8 C 54.498 8, 54.052 8.864, 53.807 12.250 C 53.592 15.224, 53.050 16.500, 52 16.500 C 50.950 16.500, 50.408 15.224, 50.193 12.250 C 49.947 8.852, 49.505 8, 47.988 8 C 46.342 8, 46.052 8.893, 45.796 14.750 C 45.568 19.952, 45.156 21.500, 44 21.500 C 42.844 21.500, 42.432 19.952, 42.204 14.750 C 41.941 8.745, 41.686 8, 39.891 8 C 37.932 8, 37.883 8.512, 38.187 25.827 M 58 23.606 C 58 24.489, 56.875 26.097, 55.500 27.179 C 50.703 30.952, 52.832 36.070, 60.003 38.001 C 62.155 38.580, 64.161 39.452, 64.461 39.937 C 65.472 41.573, 63.797 44.013, 61.218 44.660 C 59.220 45.162, 58.156 44.720, 56.377 42.651 C 55.122 41.193, 53.666 40, 53.142 40 C 51.482 40, 53.147 43.971, 55.623 45.918 C 56.930 46.946, 58 48.286, 58 48.894 C 58 49.502, 58.900 50, 60 50 C 61.100 50, 62 49.355, 62 48.567 C 62 47.779, 62.926 46.841, 64.057 46.482 C 65.189 46.123, 66.551 44.682, 67.084 43.279 C 68.514 39.518, 66.117 36.519, 60.566 35.121 C 57.279 34.293, 56 33.471, 56 32.186 C 56 28.065, 61.067 26.534, 63.232 30 C 64.549 32.109, 67 32.730, 67 30.955 C 67 30.380, 65.875 28.784, 64.500 27.409 C 63.125 26.034, 62 24.255, 62 23.455 C 62 22.655, 61.100 22, 60 22 C 58.830 22, 58 22.667, 58 23.606 M 75.708 58.099 C 67.036 63.467, 66.001 64.409, 66.657 66.330 C 67.720 69.446, 67.412 72.798, 65.896 74.626 C 63.035 78.073, 60.474 78.034, 47.791 74.350 C 35.020 70.641, 32.920 69.649, 34.550 68.094 C 35.124 67.547, 39.859 68.537, 46.500 70.593 C 59.527 74.626, 63.361 74.697, 63.801 70.914 C 63.966 69.492, 63.516 67.846, 62.801 67.257 C 62.085 66.667, 55.650 63.582, 48.500 60.402 C 30.971 52.606, 26.458 52.237, 13.359 57.531 L 4 61.313 4 75.657 C 4 92.227, 3.889 92.086, 12.480 86.382 C 19.611 81.647, 22.362 81.763, 37.941 87.455 C 56.608 94.275, 55.435 94.538, 76.146 78.879 C 85.691 71.663, 94.063 65.052, 94.750 64.188 C 96.678 61.766, 96.274 56.274, 94 54 C 90.539 50.539, 86.435 51.459, 75.708 58.099" stroke="none" fill="#040404" fill-rule="evenodd"/></svg>