<svg xmlns="http://www.w3.org/2000/svg" width="50" height="50" viewBox="0 0 50 50" version="1.1"><path d="" stroke="none" fill="#080404" fill-rule="evenodd"/><path d="M 15.500 3.389 C 3.400 8.675, -1.445 21.900, 4.630 33.062 L 7.260 37.894 5.130 41.504 C 3.959 43.490, 3 45.764, 3 46.557 C 3 48.721, 7.897 48.345, 12.515 45.827 C 15.719 44.079, 17.898 43.700, 23.631 43.890 C 31.548 44.153, 35.636 42.875, 40.794 38.526 C 52.778 28.421, 49.302 9.642, 34.282 3.348 C 30.216 1.644, 19.440 1.668, 15.500 3.389 M 19.195 5.155 C 13.416 6.476, 6.589 13.028, 5.069 18.713 C 3.745 23.664, 4.346 26.836, 7.789 33.081 C 10.235 37.516, 10.263 37.767, 8.653 40.993 C 7.739 42.825, 7.195 44.528, 7.444 44.777 C 7.692 45.026, 9.924 44.095, 12.403 42.710 C 16.205 40.585, 17.506 40.328, 20.705 41.070 C 27.774 42.709, 36.548 39.703, 41.348 33.998 C 53.087 20.048, 38.295 0.789, 19.195 5.155 M 13.175 18.250 C 11.968 21.688, 10.984 25.063, 10.990 25.750 C 11.006 27.770, 13.140 27.181, 13.710 25 C 14.039 23.742, 15.074 23, 16.500 23 C 17.926 23, 18.961 23.742, 19.290 25 C 19.860 27.181, 21.994 27.770, 22.010 25.750 C 22.031 23.119, 17.576 12, 16.500 12 C 15.878 12, 14.382 14.813, 13.175 18.250 M 15.710 19 C 15.383 20.250, 15.680 21, 16.500 21 C 17.320 21, 17.617 20.250, 17.290 19 C 17.002 17.900, 16.647 17, 16.500 17 C 16.353 17, 15.998 17.900, 15.710 19 M 32 20.500 C 32 21.500, 31 22, 29 22 C 27.350 22, 26 22.450, 26 23 C 26 23.550, 28.025 24, 30.500 24 C 35.379 24, 35.531 24.140, 33.920 27.149 C 32.890 29.074, 32.753 29.086, 30.914 27.422 C 28.588 25.317, 27.116 26.355, 28.740 28.955 C 29.709 30.507, 29.535 31.068, 27.702 32.300 C 24.851 34.217, 26.235 35.670, 29.496 34.184 C 31.372 33.329, 32.628 33.329, 34.504 34.184 C 37.634 35.610, 39.163 34.323, 36.581 32.436 C 34.699 31.060, 34.699 30.974, 36.560 27.518 C 37.602 25.583, 38.802 24, 39.227 24 C 39.652 24, 40 23.550, 40 23 C 40 22.450, 38.650 22, 37 22 C 35 22, 34 21.500, 34 20.500 C 34 19.675, 33.550 19, 33 19 C 32.450 19, 32 19.675, 32 20.500" stroke="none" fill="#040404" fill-rule="evenodd"/></svg>