<svg xmlns="http://www.w3.org/2000/svg" width="50" height="50" viewBox="0 0 50 50" version="1.1"><path d="" stroke="none" fill="#080404" fill-rule="evenodd"/><path d="M 5 20.791 L 5 39.856 10.750 40.481 C 13.912 40.825, 18.188 41.721, 20.250 42.472 L 24 43.839 24 24.945 L 24 6.051 20.795 4.394 C 19.033 3.483, 14.758 2.509, 11.295 2.231 L 5 1.726 5 20.791 M 32.942 2.948 C 25.654 5.160, 26 4.061, 26 24.955 L 26 43.839 29.750 42.472 C 31.813 41.721, 36.087 40.825, 39.250 40.481 L 45 39.856 45 20.928 L 45 2 40.250 2.086 C 37.638 2.133, 34.349 2.521, 32.942 2.948 M 0.445 9.284 C 0.174 9.990, 0.075 18.652, 0.226 28.534 L 0.500 46.500 9.389 46.791 C 15.144 46.979, 19.014 47.596, 20.362 48.541 C 23.031 50.411, 27.080 50.406, 29.559 48.532 C 30.905 47.514, 34.122 47.054, 40.050 47.032 C 45.326 47.012, 49.059 46.541, 49.800 45.800 C 50.645 44.955, 51 39.247, 51 26.513 C 51 9.142, 50.921 8.420, 49 8.275 C 47.082 8.130, 46.999 8.745, 46.985 23.312 C 46.976 31.665, 46.555 39.155, 46.049 39.955 C 45.464 40.879, 42.613 41.641, 38.245 42.042 C 34.460 42.389, 29.931 43.387, 28.181 44.260 C 25.276 45.709, 24.724 45.709, 21.819 44.260 C 20.069 43.387, 15.540 42.389, 11.755 42.042 C 7.387 41.641, 4.536 40.879, 3.951 39.955 C 3.445 39.155, 3.024 31.637, 3.015 23.250 C 3.005 13.451, 2.631 8, 1.969 8 C 1.401 8, 0.716 8.578, 0.445 9.284 M 0.417 27.500 C 0.418 37.950, 0.566 42.089, 0.746 36.698 C 0.926 31.307, 0.925 22.757, 0.744 17.698 C 0.563 12.639, 0.416 17.050, 0.417 27.500" stroke="none" fill="#040404" fill-rule="evenodd"/></svg>