<svg xmlns="http://www.w3.org/2000/svg" width="50" height="50" viewBox="0 0 50 50" version="1.1"><path d="" stroke="none" fill="#080404" fill-rule="evenodd"/><path d="M 23 1.777 C 23 3.960, 15.840 8.752, 11.306 9.602 C 6.928 10.424, 6.164 11.905, 8.952 14.162 C 10.909 15.747, 13.116 16, 25 16 C 36.884 16, 39.091 15.747, 41.048 14.162 C 43.836 11.905, 43.072 10.424, 38.694 9.602 C 34.160 8.752, 27 3.960, 27 1.777 C 27 0.667, 26.249 0, 25 0 C 23.751 0, 23 0.667, 23 1.777 M 22.872 6.659 C 22.118 7.572, 19.371 9.306, 16.770 10.512 C 14.168 11.719, 12.331 12.998, 12.687 13.353 C 13.531 14.197, 36.469 14.197, 37.313 13.353 C 37.669 12.998, 35.832 11.719, 33.230 10.512 C 30.629 9.306, 27.882 7.572, 27.128 6.659 C 26.373 5.747, 25.415 5, 25 5 C 24.585 5, 23.627 5.747, 22.872 6.659 M 12.718 18.972 C 12.349 20.381, 11.006 21.135, 8.015 21.614 C 3.269 22.373, 1.854 24.418, 4.625 26.516 C 6.085 27.622, 10.616 27.943, 25.095 27.968 C 42.241 27.998, 43.827 27.849, 45.443 26.063 C 47.765 23.497, 46.899 22.399, 41.921 21.603 C 38.989 21.134, 37.649 20.375, 37.282 18.972 C 36.679 16.663, 35 16.316, 35 18.500 C 35 19.733, 33.222 20, 25 20 C 16.778 20, 15 19.733, 15 18.500 C 15 16.316, 13.321 16.663, 12.718 18.972 M 11.726 23.391 C 10.201 24.067, 9.263 24.930, 9.643 25.310 C 10.540 26.207, 39.454 26.213, 40.350 25.317 C 43.245 22.421, 17.783 20.708, 11.726 23.391 M 9.487 31.177 C 8.931 32.404, 6.645 34.022, 4.250 34.884 C 1.912 35.725, -0 36.979, -0 37.671 C -0 40.437, 4.267 41, 25.212 41 C 42.911 41, 46.934 40.734, 48.777 39.443 C 51.219 37.733, 51.859 34.733, 49.597 35.601 C 47.637 36.353, 40 32.278, 40 30.480 C 40 29.666, 39.550 29, 39 29 C 38.450 29, 38 29.675, 38 30.500 C 38 31.756, 35.889 32, 25 32 C 14.111 32, 12 31.756, 12 30.500 C 12 28.300, 10.623 28.672, 9.487 31.177 M 8.272 35.885 C 6.496 36.773, 5.034 37.837, 5.022 38.250 C 4.996 39.152, 43.396 39.271, 44.294 38.372 C 44.640 38.027, 43.269 36.902, 41.250 35.872 C 36.297 33.347, 13.328 33.356, 8.272 35.885 M 0.079 37.583 C 0.127 38.748, 0.364 38.985, 0.683 38.188 C 0.972 37.466, 0.936 36.603, 0.604 36.271 C 0.272 35.939, 0.036 36.529, 0.079 37.583 M 7 46 L 7 50 25 50 L 43 50 43 46 C 43 43.800, 42.550 42, 42 42 C 41.450 42, 41 43.350, 41 45 C 41 47.889, 40.833 48, 36.500 48 C 32.367 48, 32 47.796, 32 45.500 C 32 43.071, 31.800 43, 25 43 C 18.200 43, 18 43.071, 18 45.500 C 18 47.796, 17.633 48, 13.500 48 C 9.167 48, 9 47.889, 9 45 C 9 43.350, 8.550 42, 8 42 C 7.450 42, 7 43.800, 7 46 M 20 46.500 C 20 47.633, 21.222 48, 25 48 C 28.778 48, 30 47.633, 30 46.500 C 30 45.367, 28.778 45, 25 45 C 21.222 45, 20 45.367, 20 46.500" stroke="none" fill="#040404" fill-rule="evenodd"/></svg>