<svg xmlns="http://www.w3.org/2000/svg" width="68" height="68" viewBox="0 0 68 68" version="1.1"><path d="" stroke="none" fill="#080404" fill-rule="evenodd"/><path d="M 5.073 5.635 C 3.098 8.145, 3 9.484, 3 34 C 3 58.516, 3.098 59.855, 5.073 62.365 L 7.145 65 28 65 L 48.855 65 50.927 62.365 C 52.409 60.482, 53.001 58.272, 53.004 54.615 L 53.007 49.500 55.055 52.859 C 56.964 55.989, 57.223 56.108, 58.880 54.609 C 59.858 53.724, 61.335 53, 62.162 53 C 64.626 53, 64.992 51.922, 63.647 48.623 C 62.612 46.084, 62.617 45.033, 63.672 43 C 65.390 39.692, 65.332 36.502, 63.484 32.607 C 61.931 29.335, 57.445 26, 54.596 26 C 53.255 26, 53 24.585, 53 17.135 C 53 9.680, 52.670 7.850, 50.927 5.635 L 48.855 3 28 3 L 7.145 3 5.073 5.635 M 7.655 6.829 C 6.206 8.430, 6 11.841, 6 34.272 C 6 59.608, 6.024 59.904, 8.223 61.443 C 11.487 63.730, 44.513 63.730, 47.777 61.443 C 50.212 59.738, 50.972 54.690, 48.660 55.577 C 47.923 55.860, 46.743 55.396, 46.038 54.546 C 45.332 53.695, 43.910 53, 42.878 53 C 40.722 53, 40.492 51.209, 42.173 47.520 C 43.070 45.551, 43.070 44.670, 42.173 43.773 C 41.528 43.128, 41 40.475, 41 37.877 C 41 32.801, 44.139 27.725, 48.044 26.486 C 49.792 25.931, 50 24.921, 50 16.989 C 50 4.712, 50.542 5, 27.432 5 C 11.146 5, 9.142 5.185, 7.655 6.829 M 10.425 10.334 C 10.144 11.067, 10.046 15.455, 10.207 20.084 L 10.500 28.500 18.345 28.794 C 23.268 28.978, 26.713 28.653, 27.595 27.921 C 29.398 26.425, 29.566 11.966, 27.800 10.200 C 26.063 8.463, 11.099 8.578, 10.425 10.334 M 32.246 10.250 C 32.508 11.041, 35.107 11.608, 39.330 11.796 C 44.807 12.039, 46 11.815, 46 10.546 C 46 9.297, 44.639 9, 38.917 9 C 33.696 9, 31.942 9.329, 32.246 10.250 M 12 19.223 C 12 26.328, 12.028 26.405, 13.714 23.998 C 14.656 22.653, 15.444 20.692, 15.464 19.640 C 15.515 16.922, 18.514 15.204, 20.750 16.612 C 21.712 17.218, 22.667 18.566, 22.870 19.607 C 23.074 20.648, 23.861 22.388, 24.620 23.473 C 25.852 25.233, 26 24.724, 26 18.723 L 26 12 19 12 L 12 12 12 19.223 M 32.709 14.624 C 30.925 16.408, 32.514 17, 39.083 17 C 44.303 17, 46.058 16.671, 45.754 15.750 C 45.305 14.389, 33.926 13.407, 32.709 14.624 M 32.244 21.250 C 32.470 21.938, 34.533 22.638, 36.828 22.807 C 40.070 23.046, 41 22.768, 41 21.557 C 41 20.374, 39.899 20, 36.417 20 C 33.197 20, 31.956 20.372, 32.244 21.250 M 32.709 25.624 C 31.223 27.110, 32.112 28, 35.083 28 C 37.103 28, 38.025 27.569, 37.755 26.750 C 37.288 25.332, 33.783 24.550, 32.709 25.624 M 49.315 31.007 C 45.345 32.607, 43.678 38.695, 46.282 42.087 C 51.102 48.365, 60 45.661, 60 37.918 C 60 35.033, 59.380 33.657, 57.365 32.073 C 54.539 29.850, 52.769 29.615, 49.315 31.007 M 10.186 34.686 C 10.454 37.945, 10.876 38.544, 13.086 38.801 C 16.191 39.161, 18.275 36.966, 17.827 33.805 C 17.561 31.927, 16.793 31.442, 13.686 31.186 L 9.872 30.872 10.186 34.686 M 21.186 34.686 C 21.454 37.945, 21.876 38.544, 24.086 38.801 C 27.191 39.161, 29.275 36.966, 28.827 33.805 C 28.561 31.927, 27.793 31.442, 24.686 31.186 L 20.872 30.872 21.186 34.686 M 32.186 34.686 C 32.454 37.945, 32.876 38.544, 35.086 38.801 C 38.191 39.161, 40.275 36.966, 39.827 33.805 C 39.561 31.927, 38.793 31.442, 35.686 31.186 L 31.872 30.872 32.186 34.686 M 12 34.500 C 12 35.325, 12.675 36, 13.500 36 C 14.325 36, 15 35.325, 15 34.500 C 15 33.675, 14.325 33, 13.500 33 C 12.675 33, 12 33.675, 12 34.500 M 35 34.500 C 35 35.325, 35.450 36, 36 36 C 36.550 36, 37 35.325, 37 34.500 C 37 33.675, 36.550 33, 36 33 C 35.450 33, 35 33.675, 35 34.500 M 51 34 C 51 34.550, 50.352 35, 49.559 35 C 47.546 35, 46.553 36.953, 47.887 38.287 C 48.499 38.899, 49 40.157, 49 41.082 C 49 42.361, 49.933 42.777, 52.896 42.818 C 56.518 42.868, 56.827 42.648, 57.295 39.686 C 57.680 37.244, 57.296 36.097, 55.649 34.772 C 53.254 32.847, 51 32.472, 51 34 M 10 42.500 C 10 43.847, 11.907 44.018, 24.250 43.777 C 43.242 43.408, 43.242 41.592, 24.250 41.223 C 11.907 40.982, 10 41.153, 10 42.500 M 10 47.473 C 10 48.773, 12.171 49, 24.583 49 C 35.805 49, 39.071 48.712, 38.751 47.750 C 38.451 46.846, 34.410 46.423, 24.168 46.223 C 12.007 45.984, 10 46.161, 10 47.473 M 45 48.893 C 45 50.002, 48.076 51.257, 48.864 50.469 C 49.182 50.151, 48.780 49.473, 47.971 48.961 C 46.101 47.778, 45 47.753, 45 48.893 M 58.250 48.662 C 57.563 48.940, 57 49.808, 57 50.592 C 57 51.767, 57.351 51.798, 59 50.768 C 62.089 48.839, 61.551 47.330, 58.250 48.662 M 10 52.473 C 10 53.773, 12.171 54, 24.583 54 C 35.805 54, 39.071 53.712, 38.751 52.750 C 38.451 51.846, 34.410 51.423, 24.168 51.223 C 12.007 50.984, 10 51.161, 10 52.473 M 10 57.500 C 10 58.831, 11.171 59.040, 17.250 58.794 C 21.238 58.632, 24.500 58.050, 24.500 57.500 C 24.500 56.950, 21.238 56.368, 17.250 56.206 C 11.171 55.960, 10 56.169, 10 57.500" stroke="none" fill="#040404" fill-rule="evenodd"/></svg>