<svg xmlns="http://www.w3.org/2000/svg" width="32" height="32" viewBox="0 0 32 32" version="1.1"><path d="" stroke="none" fill="#080404" fill-rule="evenodd"/><path d="M 3.250 2.662 C 1.373 3.420, 1.727 4.818, 4.500 7.591 L 7 10.091 9.500 7.591 C 10.875 6.216, 12 4.669, 12 4.152 C 12 2.331, 6.424 1.382, 3.250 2.662 M 21 8 L 21 14 25.500 14 L 30 14 30 8 L 30 2 25.500 2 L 21 2 21 8 M 6.333 4.667 C 6.700 5.033, 7.300 5.033, 7.667 4.667 C 8.033 4.300, 7.733 4, 7 4 C 6.267 4, 5.967 4.300, 6.333 4.667 M 4 18.500 L 4 25 16 25 L 28 25 28 20 L 28 15 24.469 15 C 22.252 15, 20.723 14.441, 20.362 13.500 C 19.917 12.342, 17.987 12, 11.893 12 L 4 12 4 18.500 M 11.468 17.035 C 9.671 19.021, 9.684 19.124, 12.026 21.285 L 14.426 23.500 12.558 21.250 C 10.754 19.078, 10.752 18.931, 12.500 17 C 13.495 15.900, 14.085 15, 13.810 15 C 13.535 15, 12.481 15.916, 11.468 17.035 M 19.442 16.750 C 21.266 18.947, 21.266 19.053, 19.442 21.250 L 17.574 23.500 20.009 21.250 L 22.444 19 20.009 16.750 L 17.574 14.500 19.442 16.750 M 2.190 27.750 C 2.491 29.313, 3.964 29.500, 16 29.500 C 28.036 29.500, 29.509 29.313, 29.810 27.750 C 30.118 26.150, 28.935 26, 16 26 C 3.065 26, 1.882 26.150, 2.190 27.750" stroke="none" fill="#040404" fill-rule="evenodd"/></svg>