<svg xmlns="http://www.w3.org/2000/svg" width="50" height="50" viewBox="0 0 50 50" version="1.1"><path d="" stroke="none" fill="#080404" fill-rule="evenodd"/><path d="M 10 12 L 10 20 6.500 20 L 3 20 3 33 L 3 46 25 46 L 47 46 47 27 L 47 8 39 8 L 31 8 31 18 L 31 28 28.500 28 L 26 28 26 16 L 26 4 18 4 L 10 4 10 12 M 12 13 L 12 20 15.500 20 C 18.917 20, 19 20.095, 19 24 C 19 27.600, 19.250 28, 21.500 28 L 24 28 24 17 L 24 6 18 6 L 12 6 12 13 M 15 9 C 15 9.550, 15.450 10, 16 10 C 16.550 10, 17 9.550, 17 9 C 17 8.450, 16.550 8, 16 8 C 15.450 8, 15 8.450, 15 9 M 19 9 C 19 9.550, 19.450 10, 20 10 C 20.550 10, 21 9.550, 21 9 C 21 8.450, 20.550 8, 20 8 C 19.450 8, 19 8.450, 19 9 M 33 27 L 33 44 35.500 44 C 37.333 44, 38 43.467, 38 42 C 38 40.900, 38.450 40, 39 40 C 39.550 40, 40 40.900, 40 42 C 40 43.467, 40.667 44, 42.500 44 L 45 44 45 27 L 45 10 39 10 L 33 10 33 27 M 15 13 C 15 13.550, 15.450 14, 16 14 C 16.550 14, 17 13.550, 17 13 C 17 12.450, 16.550 12, 16 12 C 15.450 12, 15 12.450, 15 13 M 19 13 C 19 13.550, 19.450 14, 20 14 C 20.550 14, 21 13.550, 21 13 C 21 12.450, 20.550 12, 20 12 C 19.450 12, 19 12.450, 19 13 M 36 13 C 36 13.550, 36.450 14, 37 14 C 37.550 14, 38 13.550, 38 13 C 38 12.450, 37.550 12, 37 12 C 36.450 12, 36 12.450, 36 13 M 40 13 C 40 13.550, 40.450 14, 41 14 C 41.550 14, 42 13.550, 42 13 C 42 12.450, 41.550 12, 41 12 C 40.450 12, 40 12.450, 40 13 M 36 17 C 36 17.550, 36.450 18, 37 18 C 37.550 18, 38 17.550, 38 17 C 38 16.450, 37.550 16, 37 16 C 36.450 16, 36 16.450, 36 17 M 40 17 C 40 17.550, 40.450 18, 41 18 C 41.550 18, 42 17.550, 42 17 C 42 16.450, 41.550 16, 41 16 C 40.450 16, 40 16.450, 40 17 M 36 21 C 36 21.550, 36.450 22, 37 22 C 37.550 22, 38 21.550, 38 21 C 38 20.450, 37.550 20, 37 20 C 36.450 20, 36 20.450, 36 21 M 40 21 C 40 21.550, 40.450 22, 41 22 C 41.550 22, 42 21.550, 42 21 C 42 20.450, 41.550 20, 41 20 C 40.450 20, 40 20.450, 40 21 M 5 28.360 C 5 39.064, 5.990 44, 8.136 44 C 9.333 44, 10 43.285, 10 42 C 10 40.900, 10.450 40, 11 40 C 11.550 40, 12 40.900, 12 42 C 12 43.467, 12.667 44, 14.500 44 L 17 44 17 33 L 17 22 11 22 L 5 22 5 28.360 M 8 25 C 8 25.550, 8.450 26, 9 26 C 9.550 26, 10 25.550, 10 25 C 10 24.450, 9.550 24, 9 24 C 8.450 24, 8 24.450, 8 25 M 12 25 C 12 25.550, 12.450 26, 13 26 C 13.550 26, 14 25.550, 14 25 C 14 24.450, 13.550 24, 13 24 C 12.450 24, 12 24.450, 12 25 M 36 25 C 36 25.550, 36.450 26, 37 26 C 37.550 26, 38 25.550, 38 25 C 38 24.450, 37.550 24, 37 24 C 36.450 24, 36 24.450, 36 25 M 40 25 C 40 25.550, 40.450 26, 41 26 C 41.550 26, 42 25.550, 42 25 C 42 24.450, 41.550 24, 41 24 C 40.450 24, 40 24.450, 40 25 M 8 29 C 8 29.550, 8.450 30, 9 30 C 9.550 30, 10 29.550, 10 29 C 10 28.450, 9.550 28, 9 28 C 8.450 28, 8 28.450, 8 29 M 12 29 C 12 29.550, 12.450 30, 13 30 C 13.550 30, 14 29.550, 14 29 C 14 28.450, 13.550 28, 13 28 C 12.450 28, 12 28.450, 12 29 M 36 29 C 36 29.550, 36.450 30, 37 30 C 37.550 30, 38 29.550, 38 29 C 38 28.450, 37.550 28, 37 28 C 36.450 28, 36 28.450, 36 29 M 40 29 C 40 29.550, 40.450 30, 41 30 C 41.550 30, 42 29.550, 42 29 C 42 28.450, 41.550 28, 41 28 C 40.450 28, 40 28.450, 40 29 M 19 37 C 19 43.800, 19.071 44, 21.500 44 C 23.333 44, 24 43.467, 24 42 C 24 40.900, 24.450 40, 25 40 C 25.550 40, 26 40.900, 26 42 C 26 43.467, 26.667 44, 28.500 44 C 30.929 44, 31 43.800, 31 37 L 31 30 25 30 L 19 30 19 37 M 8 33 C 8 33.550, 8.450 34, 9 34 C 9.550 34, 10 33.550, 10 33 C 10 32.450, 9.550 32, 9 32 C 8.450 32, 8 32.450, 8 33 M 12 33 C 12 33.550, 12.450 34, 13 34 C 13.550 34, 14 33.550, 14 33 C 14 32.450, 13.550 32, 13 32 C 12.450 32, 12 32.450, 12 33 M 22 33 C 22 33.550, 22.450 34, 23 34 C 23.550 34, 24 33.550, 24 33 C 24 32.450, 23.550 32, 23 32 C 22.450 32, 22 32.450, 22 33 M 26 33 C 26 33.550, 26.450 34, 27 34 C 27.550 34, 28 33.550, 28 33 C 28 32.450, 27.550 32, 27 32 C 26.450 32, 26 32.450, 26 33 M 36 33 C 36 33.550, 36.450 34, 37 34 C 37.550 34, 38 33.550, 38 33 C 38 32.450, 37.550 32, 37 32 C 36.450 32, 36 32.450, 36 33 M 40 33 C 40 33.550, 40.450 34, 41 34 C 41.550 34, 42 33.550, 42 33 C 42 32.450, 41.550 32, 41 32 C 40.450 32, 40 32.450, 40 33 M 22 37 C 22 37.550, 22.450 38, 23 38 C 23.550 38, 24 37.550, 24 37 C 24 36.450, 23.550 36, 23 36 C 22.450 36, 22 36.450, 22 37 M 26 37 C 26 37.550, 26.450 38, 27 38 C 27.550 38, 28 37.550, 28 37 C 28 36.450, 27.550 36, 27 36 C 26.450 36, 26 36.450, 26 37 M 36 37 C 36 37.550, 36.450 38, 37 38 C 37.550 38, 38 37.550, 38 37 C 38 36.450, 37.550 36, 37 36 C 36.450 36, 36 36.450, 36 37 M 40 37 C 40 37.550, 40.450 38, 41 38 C 41.550 38, 42 37.550, 42 37 C 42 36.450, 41.550 36, 41 36 C 40.450 36, 40 36.450, 40 37" stroke="none" fill="#040404" fill-rule="evenodd"/></svg>