<svg xmlns="http://www.w3.org/2000/svg" width="48" height="48" viewBox="0 0 48 48" version="1.1"><path d="" stroke="none" fill="#080404" fill-rule="evenodd"/><path d="M 20.200 3.200 C 18.653 4.747, 18.653 9.253, 20.200 10.800 C 21.747 12.347, 26.253 12.347, 27.800 10.800 C 29.347 9.253, 29.347 4.747, 27.800 3.200 C 26.253 1.653, 21.747 1.653, 20.200 3.200 M 7.035 10.934 C 6.466 11.998, 6 16.048, 6 19.934 C 6 26.281, 6.199 27, 7.956 27 C 9.691 27, 9.946 26.179, 10.206 19.750 L 10.500 12.500 13.750 12.187 C 15.763 11.993, 17 11.327, 17 10.437 C 17 8.063, 8.341 8.495, 7.035 10.934 M 31 10.437 C 31 11.327, 32.237 11.993, 34.250 12.187 L 37.500 12.500 37.794 19.750 C 38.054 26.179, 38.309 27, 40.044 27 C 41.801 27, 42 26.281, 42 19.934 C 42 10.498, 41.105 9, 35.465 9 C 32.250 9, 31 9.402, 31 10.437 M 16.706 15.627 C 15.362 16.971, 16.007 21.285, 17.750 22.608 C 18.712 23.339, 21.568 23.951, 24.095 23.968 C 29.368 24.005, 32.368 21.626, 31.830 17.832 C 31.525 15.674, 30.974 15.478, 24.456 15.210 C 20.582 15.051, 17.095 15.239, 16.706 15.627 M 4.930 30.584 C 3.176 32.697, 4.926 35.500, 8 35.500 C 11.074 35.500, 12.824 32.697, 11.070 30.584 C 10.347 29.713, 8.965 29, 8 29 C 7.035 29, 5.653 29.713, 4.930 30.584 M 20.930 30.584 C 19.176 32.697, 20.926 35.500, 24 35.500 C 27.074 35.500, 28.824 32.697, 27.070 30.584 C 26.347 29.713, 24.965 29, 24 29 C 23.035 29, 21.653 29.713, 20.930 30.584 M 36.930 30.584 C 35.176 32.697, 36.926 35.500, 40 35.500 C 43.074 35.500, 44.824 32.697, 43.070 30.584 C 42.347 29.713, 40.965 29, 40 29 C 39.035 29, 37.653 29.713, 36.930 30.584 M 2 39.800 C 2 42.569, 4.045 44, 8 44 C 11.955 44, 14 42.569, 14 39.800 C 14 38.267, 13.111 38, 8 38 C 2.889 38, 2 38.267, 2 39.800 M 18 39.800 C 18 42.569, 20.045 44, 24 44 C 27.955 44, 30 42.569, 30 39.800 C 30 38.267, 29.111 38, 24 38 C 18.889 38, 18 38.267, 18 39.800 M 34 39.800 C 34 42.569, 36.045 44, 40 44 C 43.955 44, 46 42.569, 46 39.800 C 46 38.267, 45.111 38, 40 38 C 34.889 38, 34 38.267, 34 39.800" stroke="none" fill="#040404" fill-rule="evenodd"/></svg>